<svg width="54" height="54" viewBox="0 0 54 54" fill="none" xmlns="http://www.w3.org/2000/svg">
<g filter="url(#filter0_d_298_233)">
<rect x="3" y="2" width="48" height="48" rx="6" fill="#FDB913" shape-rendering="crispEdges"/>
<g clip-path="url(#clip0_298_233)">
<path d="M18.8967 23.856H21.9513V35.0921C21.8793 35.0956 21.814 35.1027 21.7488 35.1027C20.8633 35.1027 19.9813 35.1027 19.0958 35.1062C18.9379 35.1062 18.883 35.0708 18.883 34.8938C18.8864 31.2782 18.8864 27.6592 18.8864 24.0436C18.8864 23.987 18.8933 23.9303 18.8967 23.856Z" fill="black"/>
<path d="M35.1136 23.8521C35.1136 23.9512 35.1136 24.0291 35.1136 24.1035C35.1136 27.6871 35.1136 31.2743 35.117 34.858C35.117 35.0492 35.0724 35.1094 34.8802 35.1059C34.0153 35.0953 33.1504 35.1023 32.2855 35.1023C32.2134 35.1023 32.1379 35.1023 32.0452 35.1023C32.0418 35.0103 32.0349 34.9324 32.0349 34.858C32.0349 31.2743 32.0349 27.6871 32.0349 24.1035C32.0349 23.9264 32.1185 23.8379 32.2855 23.8379C33.1401 23.8379 33.9913 23.8379 34.8459 23.8379C34.9248 23.8379 35.0037 23.845 35.117 23.8521H35.1136Z" fill="black"/>
<path d="M26.9966 40.0001C23.4512 40.0001 19.9092 40.0001 16.3638 40.0001C16.0275 40.0001 16 39.9718 16 39.6283C16 39.4406 16 39.2565 16 39.0688C16 38.8918 16.0858 38.8103 16.2505 38.8032C16.3123 38.8032 16.3741 38.8032 16.4359 38.8032C23.4855 38.8032 30.5385 38.8032 37.5881 38.8032C37.6396 38.8032 37.6877 38.8032 37.7392 38.8032C37.9142 38.8032 38.0034 38.8918 38 39.0759C37.9966 39.2884 38 39.5008 38 39.7133C38 39.9399 37.9382 39.9966 37.722 40.0001C36.936 40.0001 36.1535 40.0001 35.3676 40.0001C32.5772 40.0001 29.7869 40.0001 26.9966 40.0001Z" fill="black"/>
<path d="M27.0034 22.4322C23.4958 22.4322 19.9881 22.4322 16.4839 22.4322C16.2368 22.4322 16.1133 22.3083 16.1133 22.0604C16.1133 21.4195 16.1236 20.775 16.1064 20.134C16.0995 19.9003 16.1716 19.7658 16.3569 19.6312C18.907 17.7969 21.4502 15.959 23.9935 14.1176C24.9304 13.4412 25.8708 12.7649 26.8078 12.0814C26.9451 11.9823 27.0446 11.9752 27.1853 12.0779C30.6861 14.6134 34.1903 17.1453 37.6945 19.6737C37.8387 19.7764 37.8936 19.8897 37.8902 20.0703C37.8799 20.7502 37.8867 21.4336 37.8867 22.1135C37.8867 22.4358 37.8867 22.4358 37.5779 22.4358C35.0243 22.4358 32.4708 22.4358 29.9173 22.4358C28.946 22.4358 27.9747 22.4358 27.0034 22.4358V22.4322ZM16.5251 22.0073H16.7997C21.7385 22.0073 26.6774 22.0073 31.6162 22.0073C33.497 22.0073 35.3779 22.0073 37.2587 22.0109C37.4337 22.0109 37.4783 21.9542 37.4749 21.7842C37.4646 21.2955 37.4612 20.8069 37.4749 20.3182C37.4818 20.1128 37.4234 19.9853 37.2518 19.8614C33.8917 17.4427 30.5351 15.0206 27.1819 12.5913C27.0412 12.4887 26.9485 12.4922 26.8078 12.5913C25.1638 13.7847 23.5164 14.9746 21.8655 16.1644C20.1357 17.4144 18.4059 18.6609 16.6761 19.9074C16.5629 19.9888 16.508 20.0774 16.5148 20.2226C16.5251 20.4421 16.5183 20.6581 16.5183 20.8777C16.5183 21.2424 16.5183 21.6072 16.5183 22.0038L16.5251 22.0073Z" fill="black"/>
<path d="M27 37.879C23.9111 37.879 20.8222 37.879 17.7298 37.879C17.3969 37.879 17.3523 37.8329 17.3523 37.493C17.3523 37.1318 17.5273 36.9512 17.8774 36.9512C23.9832 36.9512 30.0855 36.9512 36.1913 36.9512C36.2668 36.9512 36.3423 36.9512 36.4144 36.9512C36.5551 36.9583 36.634 37.0362 36.6409 37.1813C36.6477 37.3336 36.6477 37.4894 36.6409 37.6452C36.634 37.7975 36.5482 37.879 36.3972 37.8754C36.3286 37.8754 36.2599 37.8754 36.1913 37.8754C33.1264 37.8754 30.0615 37.8754 26.9966 37.8754L27 37.879Z" fill="black"/>
<path d="M23.8459 24.2452C23.9214 24.2452 23.9797 24.2452 24.0415 24.2452C26.015 24.2452 27.9884 24.2452 29.9619 24.2417C30.1301 24.2417 30.1713 24.2984 30.1713 24.4613C30.1678 28.1759 30.1678 31.8871 30.1713 35.6018C30.1713 35.7717 30.1198 35.8213 29.9585 35.8213C27.985 35.8178 26.0115 35.8178 24.0381 35.8213C23.8699 35.8213 23.8321 35.7611 23.8321 35.5982C23.8356 31.8906 23.8321 28.183 23.8321 24.4754C23.8321 24.4046 23.839 24.3373 23.8459 24.2452ZM29.756 35.3822C29.756 35.2972 29.756 35.2335 29.756 35.1697C29.756 31.7454 29.756 28.3176 29.7594 24.8933C29.7594 24.7162 29.7148 24.6666 29.5432 24.6666C27.8546 24.6737 26.166 24.6737 24.4774 24.6666C24.2886 24.6666 24.2405 24.7162 24.2405 24.9145C24.2474 28.3353 24.244 31.7525 24.244 35.1733C24.244 35.2406 24.2508 35.3078 24.2543 35.3857H29.756V35.3822Z" fill="black"/>
<path d="M20.4412 22.9705C21.2992 22.9705 22.1607 22.9705 23.0187 22.9705C23.2452 22.9705 23.4512 23.0165 23.6228 23.1759C23.8527 23.3884 23.8596 23.6823 23.6434 23.9018C23.2693 24.2843 22.5039 24.1568 22.346 23.7C22.3323 23.6575 22.2568 23.6114 22.2087 23.6114C21.0246 23.6079 19.844 23.6044 18.6599 23.6114C18.6084 23.6114 18.5398 23.6646 18.5123 23.7106C18.2583 24.178 17.5513 24.2736 17.1944 23.8806C16.9988 23.6646 17.009 23.3848 17.2218 23.1794C17.39 23.0201 17.5994 22.9634 17.8225 22.967C18.6942 22.967 19.566 22.967 20.4378 22.967L20.4412 22.9705Z" fill="black"/>
<path d="M33.5828 22.9705C34.4409 22.9705 35.3023 22.9634 36.1604 22.9776C36.3423 22.9776 36.5448 23.0378 36.7026 23.137C37.0218 23.3317 37.0218 23.7212 36.7301 23.955C36.3354 24.2701 35.7211 24.1462 35.4808 23.7106C35.4533 23.6646 35.3813 23.615 35.3298 23.615C34.1526 23.6115 32.9753 23.6115 31.7981 23.615C31.7432 23.615 31.6677 23.6752 31.6402 23.7283C31.4927 24.0116 31.249 24.1179 30.9607 24.1285C30.6827 24.1391 30.4287 24.0506 30.264 23.7956C30.1473 23.615 30.1713 23.3955 30.3223 23.229C30.4939 23.0378 30.717 22.9741 30.9641 22.9741C31.8359 22.9741 32.7076 22.9741 33.5794 22.9741L33.5828 22.9705Z" fill="black"/>
<path d="M33.5794 36.2961C33.0063 36.2961 32.4365 36.2961 31.8633 36.2961C31.5304 36.2961 31.3588 36.1119 31.3691 35.7897C31.3794 35.5312 31.5682 35.3577 31.8633 35.3541C32.361 35.3506 32.8587 35.3541 33.3563 35.3541C33.9913 35.3541 34.6262 35.3541 35.2612 35.3541C35.5666 35.3541 35.7623 35.5276 35.776 35.7932C35.7897 36.1119 35.6078 36.2996 35.2818 36.3031C34.9969 36.3031 34.7086 36.3031 34.4237 36.3031C34.1423 36.3031 33.8643 36.3031 33.5828 36.3031L33.5794 36.2961Z" fill="black"/>
<path d="M20.4412 36.2995C19.8749 36.2995 19.3086 36.2995 18.7423 36.2995C18.4162 36.2995 18.2275 36.1295 18.224 35.8321C18.224 35.5381 18.4162 35.354 18.7354 35.354C19.8612 35.354 20.9869 35.354 22.1126 35.354C22.4112 35.354 22.6103 35.5204 22.6275 35.7683C22.6481 36.1012 22.473 36.296 22.1367 36.296C21.5704 36.2995 21.0041 36.296 20.4378 36.296L20.4412 36.2995Z" fill="black"/>
<path d="M29.4711 24.975C29.4711 25.0741 29.4711 25.1556 29.4711 25.237C29.4711 28.4418 29.4711 31.6501 29.4711 34.8548C29.4711 35.0319 29.4368 35.0992 29.2481 35.0956C27.7482 35.0886 26.2449 35.0886 24.7451 35.0956C24.5803 35.0956 24.522 35.0567 24.522 34.8725C24.5289 31.6395 24.5254 28.4099 24.522 25.1768C24.522 25.0175 24.5563 24.9502 24.7279 24.9502C26.2346 24.9573 27.7413 24.9537 29.2481 24.9537C29.3133 24.9537 29.3819 24.9644 29.4677 24.9714L29.4711 24.975Z" fill="black"/>
<path d="M36.8296 20.127C33.6309 17.8217 30.4321 15.5128 27.2402 13.1933C27.0583 13.0623 26.9417 13.0588 26.7598 13.1933C24.6009 14.7621 22.4387 16.3202 20.2764 17.8819C19.2296 18.6361 18.1828 19.3904 17.1429 20.1482C17.0743 20.1978 16.9816 20.2828 16.9782 20.3536C16.961 20.7431 16.9713 21.1362 16.9713 21.5576H17.3042C23.7807 21.5576 30.2571 21.5576 36.7335 21.5576C36.785 21.5576 36.8331 21.554 36.8846 21.5576C37.0012 21.5682 37.0356 21.5151 37.0356 21.4018C37.0287 21.1114 37.0218 20.821 37.0356 20.5342C37.0459 20.3465 36.9841 20.2332 36.8331 20.127H36.8296Z" fill="black"/>
</g>
</g>
<defs>
<filter id="filter0_d_298_233" x="0" y="0" width="54" height="54" filterUnits="userSpaceOnUse" color-interpolation-filters="sRGB">
<feFlood flood-opacity="0" result="BackgroundImageFix"/>
<feColorMatrix in="SourceAlpha" type="matrix" values="0 0 0 0 0 0 0 0 0 0 0 0 0 0 0 0 0 0 127 0" result="hardAlpha"/>
<feOffset dy="1"/>
<feGaussianBlur stdDeviation="1.5"/>
<feComposite in2="hardAlpha" operator="out"/>
<feColorMatrix type="matrix" values="0 0 0 0 0 0 0 0 0 0 0 0 0 0 0 0 0 0 0.1 0"/>
<feBlend mode="normal" in2="BackgroundImageFix" result="effect1_dropShadow_298_233"/>
<feBlend mode="normal" in="SourceGraphic" in2="effect1_dropShadow_298_233" result="shape"/>
</filter>
<clipPath id="clip0_298_233">
<rect width="22" height="28" fill="white" transform="translate(16 12)"/>
</clipPath>
</defs>
</svg>
