<svg width="272" height="47" viewBox="0 0 272 47" fill="none" xmlns="http://www.w3.org/2000/svg">
<g clip-path="url(#clip0_13_353)">
<path d="M146.702 28.1588C148.084 26.4773 149.192 26.6701 150.758 28.2283C153.041 30.4949 156.287 31.0957 159.369 31.5105C175.014 33.6179 190.748 34.1851 206.528 34.0035C215.611 33.8981 224.671 33.3959 233.711 32.6964C240.022 32.24 246.304 31.4504 252.527 30.3312C254.271 30.0084 255.994 29.6093 257.181 28.1969C258.233 28.856 256.077 29.9321 257.524 30.2572C258.846 30.5532 260.265 30.4164 261.27 29.2595C261.689 28.7753 262.05 28.2395 262.652 27.4548C262.974 28.4838 262.062 29.5779 263.486 29.9209C265.762 30.4769 265.213 28.1049 266.317 27.4727C266.881 28.791 268.832 29.7662 270.173 29.4277C271.224 29.1631 270.885 28.5309 270.634 27.8897C269.662 25.3384 268.217 23.0314 266.874 20.7155C266.225 20.7962 266.662 21.7401 265.856 21.6011C265.626 20.2178 265.227 18.8031 265.483 17.3414C265.545 16.9872 265.591 16.5074 266.068 16.3841C266.49 16.2765 266.676 16.6531 266.844 16.911C268.918 20.1057 270.906 23.3453 271.853 27.0602C272.003 27.7079 272.041 28.3755 271.965 29.0354C271.684 31.8669 270.233 32.6225 267.757 31.1361C266.573 30.4209 265.914 30.1518 265.391 31.7481C264.9 33.23 263.651 32.8691 262.49 32.5507C261.91 32.3893 261.514 31.7302 260.673 32.275C258.742 33.5215 256.697 34.1828 254.704 32.3019C254.428 32.0396 254.22 32.3019 253.997 32.3624C243.17 35.4271 231.972 35.593 220.856 36.4382C204.189 37.7072 187.543 37.0817 170.908 35.9203C165.149 35.519 159.39 34.9272 153.73 33.6919C153.152 33.5663 152.514 33.2883 152.18 34.1021C152.046 34.4317 151.719 34.7747 151.417 34.6223C148.471 33.0529 146.759 34.5259 144.665 36.5257C143.03 38.095 140.42 38.6936 137.849 38.8147C140.383 37.0794 142.917 35.3173 145.483 33.6268C146.222 33.1426 146.494 32.8489 145.944 31.9678C145.057 30.5554 146.573 29.4322 146.711 28.1162L146.702 28.1588ZM149.952 30.6899C149.39 30.033 149.491 28.8067 148.374 28.6856C148.187 28.6654 147.683 29.3313 147.75 29.5555C148.047 30.524 149.132 30.3379 149.952 30.6899Z" fill="white"/>
<path d="M13.4764 31.053C13.6572 31.1317 13.8267 31.2326 13.9809 31.3534C20.7698 38.4223 29.48 41.3592 39.0678 42.3614C51.2104 43.6325 62.7955 41.6215 73.8093 36.548C76.0323 35.5257 78.1586 34.333 79.7781 32.452C80.9483 31.0911 81.3469 29.5621 80.2987 28.0645C79.2713 26.6005 79.4878 25.3742 80.559 23.9887C81.1073 24.6859 81.4805 25.5782 82.1601 25.9369C83.5538 26.679 85.2447 26.4548 85.9726 25.1433C88.0597 21.3835 91.5014 20.063 95.8669 19.6259C93.5494 18.1731 91.324 18.5497 89.1563 18.5654C89.6884 15.6307 92.1303 14.4739 95.1688 16.0993C98.9975 18.135 103.059 19.368 107.436 20.1819C106.611 21.7916 105.756 22.7803 103.718 22.0539C100.175 20.7894 96.6224 21.4194 93.0909 22.3005C92.2271 22.5247 91.9529 22.6458 92.5334 23.556C93.5471 25.1478 93.296 27.3673 92.0174 28.2977C90.5592 29.3604 89.078 28.625 87.887 27.7753C86.8941 27.0646 86.2398 26.623 85.5234 27.9479C85.4036 28.1721 85.1341 28.4412 84.9175 28.4546C82.3835 28.6228 82.0357 30.6069 81.2593 32.3803C80.2152 34.728 78.385 36.6624 76.0669 37.8685C59.3032 46.7713 41.9266 48.789 23.813 42.0116C18.5145 40.0365 15.6718 35.8754 13.4764 31.053ZM88.1703 24.103C89.6746 25.845 89.9188 25.9436 91.5774 25.5558C90.7435 24.4685 89.8036 23.7824 88.1703 24.0963V24.103Z" fill="white"/>
<path d="M0 33.5641C2.91413 31.571 5.39978 29.8447 7.91768 28.1678C8.60877 27.7194 8.96585 27.4369 8.51202 26.4729C7.8693 25.1098 9.23076 22.1325 10.5485 21.4061C11.099 21.1034 11.6127 21.1281 12.032 21.5765C16.69 26.5468 22.8592 26.2464 28.9409 26.0985C33.3023 26.0074 37.6354 25.3914 41.8414 24.2645C43.3387 23.8565 44.797 23.2781 45.8014 21.9374C46.9094 24.6479 49.812 24.6636 53.6637 22.0854C52.5396 21.3388 51.215 21.3769 49.9641 21.1258C48.7132 20.8747 47.4162 20.9398 46.117 20.942C46.8081 17.9782 48.1903 17.1307 50.9224 18.1149C54.7856 19.5116 58.6811 20.6438 62.8669 20.5452C63.3875 20.5317 64.5531 20.0385 64.3481 21.1595C64.2099 21.9195 63.8528 23.388 62.7586 23.1436C57.7735 22.0226 53.878 24.9909 49.5471 26.2688C47.9346 26.7419 46.6284 26.9414 45.6493 25.3295C45.442 24.9887 45.2439 24.6367 44.7278 25.0492C41.148 27.9481 36.6835 28.1879 32.3918 28.6498C26.9067 29.2439 21.3687 29.6273 15.9275 28.1207C15.7409 28.0691 15.4161 27.9727 15.3654 28.04C13.921 30.0465 12.3315 28.4884 10.8226 28.1947C10.2559 28.0848 9.92647 27.9167 9.48416 28.531C7.47537 31.3289 4.06596 33.1785 0 33.5641ZM12.6517 25.1658C12.1587 24.3722 11.7302 23.6637 11.2695 22.9239C10.6475 23.2624 10.0186 23.657 10.3849 24.2937C10.7857 25.0066 11.6266 25.2331 12.6517 25.1658Z" fill="white"/>
<path d="M137.789 18.0454C139.067 21.2447 140.926 24.2421 141.336 27.6857C141.544 29.4165 141.675 31.4432 139.526 32.3221C138.017 32.9408 136.4 31.7123 135.121 29.152C134.239 31.2213 133.168 33.0933 130.594 32.9902C128.418 32.9027 127.478 31.3872 127.028 29.1094C126.093 31.2549 124.522 31.3894 122.808 31.2482C121.378 31.1316 120.838 30.6182 121.507 29.1811C122.198 27.688 123.391 26.7531 124.801 26.0603C126.266 25.3407 127.846 24.8004 127.796 22.6548C128.641 24.1233 128.233 25.5559 128.346 26.9145C128.528 29.1565 129.268 29.912 131.288 29.7304C133.566 29.5241 134.72 28.2104 134.326 26.1949C134.034 24.7062 133.691 23.222 133.313 21.7513C133.016 20.6012 133.182 19.5722 133.937 18.1642C134.76 21.2222 135.446 23.8744 136.19 26.5132C136.612 28.0063 137.425 29.1609 139.21 29.2865C140.217 29.356 140.625 29.0107 140.221 28.0108C139.477 26.1612 138.768 24.2982 138.008 22.4553C137.409 21.0317 137.112 19.5923 137.789 18.0454ZM123.439 28.1767C126.591 28.6924 127.224 28.3202 126.895 26.215C125.654 26.7081 124.491 27.3685 123.439 28.1767Z" fill="white"/>
<path d="M64.4909 13.6916V18.9692C63.5856 14.7902 63.2884 10.6224 64.5738 6.02197C65.7602 8.23701 65.9053 10.2323 66.244 12.1514C67.0111 16.521 68.1721 20.8367 68.1675 25.3183C68.1675 27.1478 67.6653 28.6386 65.6727 29.1498C64.7973 29.374 64.9654 29.9793 64.8503 30.5286C64.338 32.8879 63.0291 35.0125 61.1322 36.5639C59.2247 38.1803 56.7414 38.2969 54.9123 37.0123C53.1177 35.7523 52.2124 32.719 53.0141 30.6519C53.5923 30.9635 53.2997 31.524 53.3896 31.9657C54.0069 35.008 56.1793 36.0774 59.1165 34.7345C60.4625 34.0906 61.671 33.2044 62.6779 32.1226C63.8297 30.9277 64.4448 29.7125 62.8115 28.4167C62.0352 27.8002 62.2517 26.9527 62.3923 26.1972C62.542 25.3878 62.9152 24.7108 63.8459 25.6389C64.6337 26.4259 65.5414 26.4124 66.4743 25.9752C67.6446 25.4304 67.048 24.4709 66.9213 23.6997C66.3615 20.3368 65.7349 16.9918 65.1313 13.6401L64.4909 13.6916Z" fill="white"/>
<path d="M106.514 27.9524C107.558 29.3379 108.708 29.663 109.922 28.9837C111.089 28.3313 110.507 27.2193 110.352 26.2732C109.475 20.8724 108.581 15.4715 107.182 10.1694C106.8 8.72779 107.309 7.49696 107.781 6.22803C109.829 8.17403 109.019 10.6559 109.463 12.8642C109.947 15.263 110.304 17.6888 110.719 20.1034C111.133 22.518 111.626 24.9415 111.617 27.4031C111.617 29.663 111.327 31.8534 108.443 32.4385C107.91 32.5461 107.998 33.0013 107.846 33.351C107.457 34.2612 107.081 35.2006 106.531 36.0211C103.439 40.6373 99.1934 41.2247 94.5515 37.66C95.2956 36.9628 96.118 37.4807 96.8229 37.5569C100.509 37.9627 103.504 36.7924 105.922 34.0751C106.498 33.4272 107.088 32.582 106.452 31.9744C105.033 30.6315 105.952 29.5016 106.514 27.9524Z" fill="white"/>
<path d="M47.9737 5.93673C43.8271 7.4052 39.4271 7.98362 35.2091 9.21445C30.5396 10.5798 25.7526 11.6223 21.2236 14.4225C22.2741 11.9451 24.094 10.8152 26.1673 10.0126C29.7126 8.63827 33.4077 7.7101 37.0912 6.76849C39.7658 6.0847 42.3897 5.17447 45.1541 4.83594L47.9737 5.93673Z" fill="white"/>
<path d="M116.57 30.3537C116.512 22.3208 112.458 14.6803 114.153 6.47705C115.499 14.3889 118.115 22.1684 116.57 30.3537Z" fill="white"/>
<path d="M71.3444 6.64746C72.9708 14.1288 75.2145 21.5496 73.9614 29.3426C73.8416 21.6931 69.6719 14.501 71.3444 6.64746Z" fill="white"/>
<path d="M47.9737 5.93665L45.1471 4.83585C51.648 2.93021 58.2964 1.68369 65 0.576172C62.3646 4.03997 58.195 3.5288 54.5576 4.38747C54.3871 3.92114 54.9377 3.42792 54.4378 2.83829C53.8089 3.45258 52.9888 3.83371 52.9289 4.82465L47.9737 5.93665Z" fill="white"/>
<path d="M146.706 28.1117C145.578 26.5692 145.861 24.7062 145.472 22.9956C144.665 19.4645 143.818 15.9424 142.981 12.4181C142.574 10.6896 142.733 8.99243 143.182 7.27734C144.582 14.2274 147.589 20.8747 146.704 28.1476C146.704 28.1356 146.705 28.1236 146.706 28.1117Z" fill="white"/>
<path d="M117.427 22.2199C118.415 20.6258 119.829 20.2021 120.862 19.3502C121.73 18.626 123.232 18.2135 121.836 16.5747C121.306 15.9536 121.783 14.8058 121.543 13.8843C121.327 13.0459 122.096 12.7499 122.87 12.9741C124.623 13.4853 125.817 14.613 126.222 16.3572C126.374 17.0096 126.247 18.209 125.335 17.9019C123.891 17.4199 123.548 18.3682 122.889 19.0475C121.488 20.4891 119.7 21.3321 117.427 22.2199Z" fill="white"/>
<path d="M27.7452 31.1877C28.206 31.3581 28.692 31.459 29.0837 31.7011C29.6504 32.0509 30.0051 32.1002 30.3967 31.4545C30.6893 30.9792 30.687 29.9053 31.7121 30.3829C32.523 30.7595 33.744 30.755 33.9858 31.7774C34.184 32.6181 33.5251 33.4319 33.0644 34.1157C32.6036 34.7995 31.9125 34.1605 31.4265 33.9274C30.6271 33.544 29.9775 33.0956 29.6135 34.3758C29.4292 35.0282 28.9477 35.416 28.2175 34.9542C27.5264 34.5058 26.2225 34.6112 26.3285 33.4835C26.4022 32.71 26.4851 31.7325 27.3674 31.2236C27.4711 31.1631 27.6324 31.1967 27.7452 31.1877Z" fill="white"/>
<path d="M20.8781 7.06215C19.36 6.41871 18.2035 6.21694 16.9849 6.83795C17.9847 4.06019 20.4266 3.15221 22.8915 4.57135C23.5158 4.9323 23.3868 5.31119 23.085 5.87616C21.8041 8.27055 20.0234 9.12473 16.7914 8.59788L20.8781 7.06215Z" fill="white"/>
<path d="M85.7284 8.69626C87.0322 8.20752 88.1656 8.17613 89.124 7.3511C87.9192 6.43638 86.6383 6.94755 85.3851 7.04395C87.1958 4.21014 88.2278 3.82228 91.1926 4.85358C91.6096 4.9993 92.0773 5.09346 91.9529 5.77501C91.5612 7.92055 88.1518 9.68047 85.7284 8.69626Z" fill="white"/>
<path d="M252.308 15.9268C253.691 14.8058 255.213 14.9336 256.386 13.8956C255.068 13.5033 253.919 12.9114 252.629 14.0032C253.451 11.2232 256.229 10.1919 258.491 11.6492C259.323 12.1805 258.821 12.6805 258.542 13.1356C257.222 15.2834 255.193 16.0658 252.308 15.9268Z" fill="white"/>
<path d="M106.236 2.02246C103.335 5.64095 98.4723 6.05795 94.8003 8.8245C95.1988 6.82918 95.2933 7.01078 99.9927 4.70606C102.027 3.7084 104.132 2.89906 106.236 2.02246Z" fill="white"/>
<path d="M140.629 5.20582C141.219 3.72166 141.735 2.20163 143.875 2.88318C144.695 3.14548 144.82 2.27785 145.142 1.84516C145.819 0.93493 146.614 0.260107 147.819 0.2758C147.941 0.269136 148.063 0.286549 148.178 0.326989C148.293 0.36743 148.398 0.430063 148.487 0.511119C148.576 0.592175 148.648 0.689979 148.697 0.798644C148.747 0.90731 148.773 1.02459 148.775 1.14343C148.775 2.35184 148.16 3.30242 147.162 3.98397C146.165 4.66552 145.066 5.21703 143.937 4.73502C142.682 4.2104 141.675 4.19247 140.629 5.20582ZM144.944 3.37192C146.266 3.0715 147.125 3.12979 147.542 2.28234C147.576 2.22358 147.594 2.15803 147.596 2.09101C147.599 2.024 147.585 1.95741 147.555 1.89667C147.526 1.83593 147.483 1.78276 147.428 1.74147C147.374 1.70019 147.311 1.67196 147.243 1.65908C146.091 1.45506 145.87 2.49308 144.944 3.37192Z" fill="white"/>
<path d="M68.5039 5.19697C69.142 3.7285 69.3839 1.83406 71.7452 2.78688C72.2059 2.97072 72.4754 2.69721 72.6851 2.28917C72.8734 1.93784 73.1106 1.61345 73.39 1.32514C74.1294 0.531492 75.1154 -0.502041 76.0991 0.349896C77.0827 1.20183 76.4469 2.48871 75.6383 3.33392C74.6178 4.39211 73.261 4.90328 71.7843 4.50645C70.5311 4.16568 69.4254 3.83611 68.5039 5.19697ZM73.2564 3.16353C74.088 2.75998 75.1615 3.15008 75.4448 2.04256C75.5162 1.7668 75.2145 1.53812 74.938 1.54933C73.9797 1.57399 73.5858 2.2264 73.2517 3.16353H73.2564Z" fill="white"/>
<path d="M112.094 5.13415C112.686 3.78899 112.854 1.89231 115.19 2.71734C115.651 2.881 115.904 2.86755 116.125 2.37432C116.32 1.95267 116.597 1.57192 116.941 1.25335C117.77 0.477644 118.837 -0.598486 119.862 0.435048C120.783 1.36769 119.901 2.52902 119.108 3.38768C118.64 3.92563 118.014 4.31187 117.315 4.49492C116.615 4.67797 115.875 4.64913 115.192 4.41225C113.84 3.93247 113.038 4.24186 112.094 5.13415ZM116.881 3.00207C117.915 2.881 118.795 2.84962 119.136 1.8811C119.168 1.79142 118.774 1.41477 118.585 1.41702C117.597 1.44392 117.199 2.08511 116.881 3.00207Z" fill="white"/>
<path d="M260.936 47C263.094 43.1596 267.423 42.8816 270.765 40.9468C270 43.1215 268.031 43.7425 266.243 44.5787C264.456 45.415 262.702 46.1952 260.936 47Z" fill="white"/>
<path d="M59.4483 9.80176C60.948 12.4921 60.6001 13.223 57.7804 13.7521C57.7152 13.7703 57.6558 13.8042 57.6077 13.8507C56.7691 14.5592 55.7371 15.0322 54.9262 14.1175C54.0347 13.1131 54.4954 11.9114 55.1151 10.8286C55.9813 11.2388 54.7718 12.8037 56.207 12.7589C57.6422 12.714 56.8774 11.2299 57.6053 10.49C58.2964 10.7725 57.7643 12.3082 58.8654 11.9944C60.0311 11.6626 58.7802 10.5842 59.4483 9.80176Z" fill="white"/>
<path d="M99.4029 10.3038C100.112 10.9024 99.0942 12.2431 100.299 12.2632C101.654 12.2857 101.28 10.8105 101.605 10.0056C102.575 10.2881 101.852 11.7992 102.948 11.5279C104.045 11.2566 103.054 10.1199 103.727 9.02588C104.441 10.3576 104.572 11.4472 104.213 12.5435C103.932 13.4021 103.232 13.7564 102.273 13.3663C102.185 13.3339 102.09 13.3213 101.996 13.3294C101.902 13.3376 101.811 13.3663 101.73 13.4134C100.866 14.124 99.8106 14.5612 99.078 13.5613C98.3455 12.5614 98.5828 11.3665 99.4029 10.3038Z" fill="white"/>
<path d="M131.293 13.1737C132.108 13.7454 130.795 15.0906 132.108 15.1063C133.421 15.1219 132.622 13.4741 133.449 12.9764C134.075 13.2499 133.49 14.3956 134.329 14.3216C135.43 14.2319 134.559 13.0302 135.147 12.5796C136.434 14.8439 136.1 15.5815 133.58 16.0411C133.447 16.0491 133.319 16.0917 133.209 16.1645C132.451 16.8998 131.493 17.3504 130.802 16.3595C130.076 15.3327 130.502 14.1871 131.293 13.1737Z" fill="white"/>
<path d="M125.787 34.5034C123.849 37.4964 120.152 37.6623 117.47 39.4962C119.32 36.3934 122.686 35.6827 125.787 34.5034Z" fill="white"/>
<path d="M87.774 36.7969C85.7514 39.5208 82.3834 40.041 79.6375 41.5789C81.4758 38.5546 84.694 37.7901 87.774 36.7969Z" fill="white"/>
<path d="M12.8889 36.9873C10.7949 39.7516 7.26568 40.126 4.52893 41.8254C6.49856 38.8526 9.76055 38.0343 12.8889 36.9873Z" fill="white"/>
<path d="M141.452 43.7669C143.193 40.7246 146.428 40.0341 149.39 38.9131C147.545 41.7873 144.004 42.0114 141.452 43.7669Z" fill="white"/>
<path d="M268.71 36.7407C268.061 37.5455 268.204 39.0544 267.121 39.0835C266.222 39.1082 264.757 38.588 264.658 37.4604C264.591 36.6824 264.953 35.2476 266.075 35.2027C267.008 35.1668 268.075 35.7565 268.71 36.7407Z" fill="white"/>
<path d="M77.9074 15.8799C78.8658 16.6018 80.3677 16.6287 80.4783 17.781C80.552 18.5635 80.2364 20.0073 79.0961 20.023C78.2184 20.0432 76.956 19.4692 76.8432 18.3415C76.7625 17.5232 77.1795 16.6108 77.9074 15.8799Z" fill="white"/>
<path d="M28.5193 15.521C29.2104 16.9155 28.2429 18.4355 29.8117 18.8503C30.7101 19.0924 30.5949 18.023 31.1409 17.3908C31.468 18.7606 31.5417 19.9107 30.4797 20.7537C30.2289 20.9412 29.912 21.0245 29.5982 20.9854C29.2844 20.9463 28.9993 20.7881 28.805 20.5452C27.5357 19.0946 27.9204 17.5118 28.5193 15.521Z" fill="white"/>
<path d="M131.887 4.22363C133.705 6.46557 134.35 8.9048 133.633 11.6557C133.131 9.70293 132.649 7.78383 131.329 6.14273C130.832 5.53517 131.136 4.78188 131.887 4.22363Z" fill="white"/>
<path d="M80.0614 5.66992C82.2015 7.76838 82.8949 10.2569 82.0771 12.9002C80.84 10.8174 79.6375 6.50168 80.0614 5.66992Z" fill="white"/>
<path d="M44.3523 36.741C44.661 34.0238 41.7354 32.1652 42.1823 29.4121C44.5459 31.4186 44.9536 33.9408 44.3523 36.741Z" fill="white"/>
<path d="M258.646 19.7427C258.964 20.9399 257.609 22.0564 258.837 22.859C259.491 23.2894 259.705 22.2223 260.254 22.0496C260.68 22.4689 260.484 22.98 260.371 23.3567C260.102 24.184 259.68 25.0695 258.549 24.8162C257.418 24.5628 257.038 23.6033 257.199 22.6662C257.369 21.6775 257.597 20.6013 258.646 19.7427Z" fill="white"/>
<path d="M52.9288 4.83157C52.9887 3.84064 53.8088 3.45951 54.4377 2.84521C54.9376 3.43484 54.3871 3.92807 54.5575 4.3944L54.5114 4.40785C54.3632 4.38994 54.2128 4.41379 54.078 4.47658C53.9433 4.53937 53.8299 4.63845 53.7512 4.76207L52.9288 4.83157Z" fill="white"/>
<path d="M53.7605 4.76187C53.8391 4.63824 53.9525 4.53916 54.0873 4.47638C54.222 4.41359 54.3724 4.38974 54.5207 4.40764L53.7605 4.76187Z" fill="white"/>
</g>
<defs>
<clipPath id="clip0_13_353">
<rect width="272" height="47" fill="white"/>
</clipPath>
</defs>
</svg>
