<svg width="54" height="54" viewBox="0 0 54 54" fill="none" xmlns="http://www.w3.org/2000/svg">
<rect x="3" y="2" width="48" height="48" rx="6" fill="#FDB913"/>
<g filter="url(#filter0_d_298_228)">
<rect x="3" y="2" width="48" height="48" rx="4" fill="#FDB913"/>
</g>
<g clip-path="url(#clip0_298_228)">
<path d="M41.2965 32.8578C41.2965 32.5651 41.2965 32.3252 41.2965 32.0854C41.2965 29.8104 41.2965 27.532 41.2965 25.257C41.2965 24.5657 41.0644 24.3364 40.3681 24.3364C39.8003 24.3364 39.2325 24.3364 38.6611 24.3364C38.4076 24.3364 38.2112 24.2694 38.1862 23.9873C38.1683 23.7686 38.3469 23.6416 38.654 23.6416C39.2825 23.6416 39.9146 23.6416 40.543 23.6416C41.3965 23.6451 42 24.2377 42 25.0842C42.0036 28.9146 42.0036 32.745 42 36.5754C42 37.3584 41.4287 37.9439 40.6395 37.9968C40.5181 38.0038 40.3966 38.0003 40.2752 38.0003C33.9796 38.0003 27.6839 38.0003 21.3918 38.0003C20.8848 38.0003 20.7383 37.9227 20.7383 37.6617C20.7383 37.4007 20.9169 37.3019 21.3883 37.3019C27.7018 37.3019 34.0189 37.3019 40.3324 37.3019C41.0716 37.3019 41.293 37.0868 41.2965 36.3531C41.2965 36.0357 41.2965 35.7147 41.2965 35.362H24.9093C24.9057 35.3409 24.8985 35.3197 24.895 35.3021C25.2664 35.1081 25.6377 34.9141 26.0127 34.7236C27.1661 34.1346 28.3196 33.5421 29.4766 32.9636C29.6122 32.8966 29.7837 32.8578 29.9372 32.8578C33.5939 32.8508 37.247 32.8543 40.9037 32.8543H41.3001L41.2965 32.8578Z" fill="black"/>
<path d="M38.5896 26.6675C38.5147 27.2847 38.2075 27.6939 37.6755 27.9654C35.7364 28.953 33.7974 29.9406 31.8619 30.9317C28.1052 32.8504 24.3485 34.7727 20.5883 36.6914C19.6848 37.1535 18.9171 36.9136 18.4528 36.0248C16.7173 32.7023 14.9783 29.3833 13.2392 26.0644C12.7643 25.1579 13.0035 24.3996 13.9177 23.9305C19.6027 21.0277 25.2913 18.1214 30.9763 15.2186C31.8476 14.7742 32.6225 15.0211 33.0725 15.8747C34.8258 19.2183 36.5827 22.5655 38.329 25.9162C38.4504 26.149 38.5075 26.4171 38.5932 26.671L38.5896 26.6675ZM19.8812 36.2258C19.9669 36.1906 20.1241 36.1447 20.2633 36.0742C22.888 34.7374 25.5091 33.3971 28.1302 32.0604C31.1941 30.4944 34.258 28.9319 37.3184 27.3658C37.8433 27.0978 37.9719 26.7416 37.7183 26.2583C35.9685 22.9112 34.2152 19.5675 32.4618 16.2238C32.1761 15.6807 31.8298 15.5678 31.2905 15.8429C25.6055 18.7422 19.9205 21.6449 14.2391 24.5512C13.6749 24.8405 13.5713 25.1826 13.8605 25.7328C14.8354 27.5916 15.8067 29.4503 16.7816 31.3126C17.5565 32.7905 18.3314 34.2648 19.1028 35.7426C19.2527 36.0319 19.4634 36.2223 19.8848 36.2258H19.8812Z" fill="black"/>
<path d="M17.3209 27.9938C17.2388 27.9232 17.1066 27.8562 17.0459 27.7504C16.746 27.2072 16.4639 26.6535 16.1746 26.1033C16.0532 25.874 16.1103 25.6977 16.3389 25.5777C17.3173 25.0769 18.2993 24.5761 19.2778 24.0717C19.5099 23.9518 19.692 24.0047 19.8134 24.2304C20.1098 24.7877 20.4027 25.3485 20.6919 25.9093C20.7955 26.1103 20.7419 26.2902 20.5419 26.3925C19.5385 26.911 18.5279 27.4224 17.5209 27.9338C17.478 27.955 17.4244 27.962 17.3209 27.9938Z" fill="black"/>
<path d="M33.6403 23.9341C34.6045 23.9341 35.3615 24.6677 35.3722 25.6165C35.3829 26.5759 34.6187 27.3342 33.6439 27.3377C32.6976 27.3412 31.9226 26.5759 31.9262 25.6341C31.9262 24.6853 32.6833 23.9341 33.6403 23.9341Z" fill="black"/>
</g>
<defs>
<filter id="filter0_d_298_228" x="0" y="0" width="54" height="54" filterUnits="userSpaceOnUse" color-interpolation-filters="sRGB">
<feFlood flood-opacity="0" result="BackgroundImageFix"/>
<feColorMatrix in="SourceAlpha" type="matrix" values="0 0 0 0 0 0 0 0 0 0 0 0 0 0 0 0 0 0 127 0" result="hardAlpha"/>
<feOffset dy="1"/>
<feGaussianBlur stdDeviation="1.5"/>
<feComposite in2="hardAlpha" operator="out"/>
<feColorMatrix type="matrix" values="0 0 0 0 0 0 0 0 0 0 0 0 0 0 0 0 0 0 0.1 0"/>
<feBlend mode="normal" in2="BackgroundImageFix" result="effect1_dropShadow_298_228"/>
<feBlend mode="normal" in="SourceGraphic" in2="effect1_dropShadow_298_228" result="shape"/>
</filter>
<clipPath id="clip0_298_228">
<rect width="29" height="23" fill="white" transform="translate(13 15)"/>
</clipPath>
</defs>
</svg>
