<svg width="54" height="54" viewBox="0 0 54 54" fill="none" xmlns="http://www.w3.org/2000/svg">
<rect x="3" y="2" width="48" height="48" rx="6" fill="#FDB913"/>
<g filter="url(#filter0_d_298_228)">
<rect x="3" y="2" width="48" height="48" rx="4" fill="#FDB913"/>
</g>
<g clip-path="url(#clip0_298_228)">
<path d="M44.1267 34.516C44.1267 34.1468 44.1267 33.8444 44.1267 33.542C44.1267 30.6736 44.1267 27.8007 44.1267 24.9323C44.1267 24.0607 43.8386 23.7716 42.9741 23.7716C42.2693 23.7716 41.5645 23.7716 40.8552 23.7716C40.5404 23.7716 40.2966 23.6871 40.2656 23.3313C40.2434 23.0556 40.4651 22.8955 40.8463 22.8955C41.6265 22.8955 42.4112 22.8955 43.1913 22.8955C44.2508 22.9 45 23.6471 45 24.7144C45.0044 29.544 45.0044 34.3737 45 39.2033C45 40.1906 44.2907 40.9288 43.311 40.9955C43.1603 41.0044 43.0096 40.9999 42.8589 40.9999C35.0436 40.9999 27.2283 40.9999 19.4174 40.9999C18.788 40.9999 18.6062 40.9021 18.6062 40.573C18.6062 40.2439 18.8278 40.1194 19.413 40.1194C27.2505 40.1194 35.0923 40.1194 42.9298 40.1194C43.8474 40.1194 44.1223 39.8481 44.1267 38.9231C44.1267 38.5229 44.1267 38.1182 44.1267 37.6735H23.7839C23.7795 37.6468 23.7706 37.6201 23.7662 37.5979C24.2272 37.3533 24.6882 37.1087 25.1537 36.8685C26.5855 36.1258 28.0174 35.3787 29.4536 34.6494C29.6221 34.5649 29.8349 34.516 30.0255 34.516C34.5648 34.5071 39.0997 34.5115 43.6391 34.5115H44.1311L44.1267 34.516Z" fill="black"/>
<path d="M40.7663 26.7108C40.6732 27.4891 40.2919 28.0049 39.6314 28.3474C37.2243 29.5926 34.8172 30.8378 32.4146 32.0874C27.7511 34.5067 23.0876 36.9304 18.4197 39.3497C17.2982 39.9322 16.3451 39.6298 15.7688 38.5091C13.6144 34.3199 11.4556 30.1351 9.29673 25.9503C8.70714 24.8074 9.00415 23.8513 10.139 23.2598C17.1962 19.5998 24.2579 15.9353 31.3152 12.2753C32.3968 11.7149 33.3588 12.0262 33.9173 13.1025C36.0939 17.3184 38.2749 21.5387 40.4426 25.7636C40.5934 26.0571 40.6643 26.3951 40.7707 26.7152L40.7663 26.7108ZM17.542 38.7626C17.6484 38.7182 17.8435 38.6603 18.0163 38.5714C21.2746 36.8859 24.5283 35.196 27.7821 33.5105C31.5856 31.536 35.3891 29.5659 39.1881 27.5913C39.8398 27.2534 39.9993 26.8042 39.6846 26.1949C37.5125 21.9746 35.3359 17.7586 33.1593 13.5427C32.8047 12.8579 32.3747 12.7156 31.7053 13.0624C24.648 16.718 17.5908 20.378 10.538 24.0425C9.83755 24.4072 9.70899 24.8385 10.0681 25.5323C11.2783 27.876 12.484 30.2196 13.6942 32.5677C14.6562 34.4311 15.6181 36.29 16.5756 38.1534C16.7618 38.518 17.0234 38.7582 17.5464 38.7626H17.542Z" fill="black"/>
<path d="M14.3639 28.3833C14.2619 28.2944 14.0979 28.2099 14.0225 28.0765C13.6502 27.3916 13.3 26.6934 12.9409 25.9996C12.7902 25.7106 12.8611 25.4882 13.1448 25.337C14.3594 24.7055 15.5785 24.074 16.7931 23.4381C17.0813 23.2869 17.3073 23.3536 17.4581 23.6382C17.826 24.3408 18.1895 25.0479 18.5486 25.755C18.6771 26.0085 18.6106 26.2353 18.3624 26.3643C17.1167 27.018 15.8622 27.6629 14.6121 28.3077C14.5589 28.3344 14.4924 28.3433 14.3639 28.3833Z" fill="black"/>
<path d="M34.6225 23.2646C35.8194 23.2646 36.7591 24.1897 36.7724 25.3859C36.7857 26.5956 35.8371 27.5517 34.6269 27.5562C33.4522 27.5606 32.4902 26.5956 32.4946 25.4082C32.4946 24.2119 33.4344 23.2646 34.6225 23.2646Z" fill="black"/>
</g>
<defs>
<filter id="filter0_d_298_228" x="0" y="0" width="54" height="54" filterUnits="userSpaceOnUse" color-interpolation-filters="sRGB">
<feFlood flood-opacity="0" result="BackgroundImageFix"/>
<feColorMatrix in="SourceAlpha" type="matrix" values="0 0 0 0 0 0 0 0 0 0 0 0 0 0 0 0 0 0 127 0" result="hardAlpha"/>
<feOffset dy="1"/>
<feGaussianBlur stdDeviation="1.5"/>
<feComposite in2="hardAlpha" operator="out"/>
<feColorMatrix type="matrix" values="0 0 0 0 0 0 0 0 0 0 0 0 0 0 0 0 0 0 0.1 0"/>
<feBlend mode="normal" in2="BackgroundImageFix" result="effect1_dropShadow_298_228"/>
<feBlend mode="normal" in="SourceGraphic" in2="effect1_dropShadow_298_228" result="shape"/>
</filter>
<clipPath id="clip0_298_228">
<rect width="36" height="29" fill="white" transform="translate(9 12)"/>
</clipPath>
</defs>
</svg>
