<svg width="91" height="62" viewBox="0 0 91 62" fill="none" xmlns="http://www.w3.org/2000/svg">
<path d="M7.49653 40.9732C7.11565 40.4881 6.78884 39.9617 6.52205 39.4039C6.28002 38.8988 6.08069 38.3738 5.92617 37.8346C5.78465 37.3496 5.68493 36.8531 5.62819 36.3506C5.57526 35.9029 5.54835 35.4523 5.54757 35.0014C5.5392 33.7277 5.76505 32.4635 6.21358 31.2735C6.63472 30.1383 7.26919 29.0965 8.08188 28.2059C8.92552 27.2941 9.94764 26.5707 11.0829 26.0816C12.2182 25.5926 13.4417 25.3486 14.6753 25.3656C14.9978 25.3656 15.3764 25.3834 15.7795 25.4153C16.1826 25.4473 16.6102 25.4828 17.0379 25.529C17.4655 25.5751 17.8651 25.6355 18.2332 25.7029C18.5378 25.7572 18.8369 25.8392 19.127 25.9479L18.7134 30.3149C18.4085 30.2226 18.0544 30.1338 17.6618 30.0486C17.2692 29.9634 16.8556 29.8924 16.435 29.8391C16.0143 29.7859 15.5972 29.7397 15.1836 29.7007C14.77 29.6616 14.4054 29.6403 14.0829 29.6403C13.5404 29.6435 13.0007 29.7187 12.4775 29.864C11.9239 30.0112 11.4077 30.2763 10.9633 30.6415C10.4795 31.045 10.0914 31.5534 9.82754 32.1291C9.50756 32.859 9.35534 33.6529 9.38237 34.4511C9.37307 35.2432 9.52087 36.0292 9.81702 36.7624C10.0977 37.4523 10.5194 38.0742 11.0544 38.5873C11.6095 39.1101 12.2611 39.5167 12.9718 39.7838C13.7568 40.078 14.5885 40.2236 15.4255 40.2134H20.9778V44.3993H10.6548C9.87201 44.3934 9.09602 44.5467 8.37285 44.8502C7.6656 45.1498 7.02887 45.5975 6.50451 46.1639C5.94273 46.7797 5.50989 47.5043 5.23209 48.2941C4.90328 49.2034 4.74287 50.1662 4.75889 51.1344C4.76347 51.974 4.90686 52.8068 5.18305 53.5984C5.46859 54.4202 5.9225 55.1717 6.51503 55.8033C7.17305 56.4927 7.96575 57.0356 8.84254 57.3974C9.93778 57.8334 11.1083 58.0423 12.2847 58.0116C13.0248 58.0084 13.7638 57.9538 14.4966 57.8482C15.2864 57.7417 16.04 57.6175 16.7574 57.4755V61.2886C16.3123 61.4093 15.8987 61.5122 15.5166 61.5904C15.1345 61.6685 14.7629 61.736 14.3949 61.7999C14.0268 61.8638 13.6658 61.9029 13.3048 61.9277C12.9437 61.9526 12.5582 61.9596 12.148 61.9596C10.9295 61.9742 9.71441 61.8262 8.53408 61.5194C7.52015 61.2528 6.54713 60.8467 5.64222 60.3123C4.82877 59.8297 4.0875 59.2319 3.4409 58.5371C2.83729 57.8865 2.32428 57.1554 1.91611 56.3642C1.52225 55.6067 1.22206 54.803 1.02229 53.9712C0.826891 53.1816 0.726809 52.3709 0.724309 51.5569C0.71017 50.2788 0.883861 49.0057 1.23962 47.7793C1.55602 46.6981 2.03992 45.6747 2.67326 44.7473C3.26447 43.8852 3.98881 43.1251 4.81849 42.4963C5.6356 41.8629 6.53726 41.3502 7.49653 40.9732Z" fill="#1C5381"/>
<path d="M25.1913 50.105C26.5348 49.9633 27.8519 49.6298 29.1032 49.1144C29.9513 48.7792 30.6954 48.2201 31.2581 47.4953C31.8209 46.7704 32.1818 45.9062 32.3035 44.9923C32.4635 43.947 32.5396 42.8903 32.5313 41.8325V26.4272H36.6605V40.2064H42.0517C42.4818 40.1771 42.9111 40.2732 43.289 40.4833C43.433 40.5932 43.5467 40.7388 43.6191 40.9061C43.6916 41.0733 43.7203 41.2566 43.7026 41.4384V43.0396C43.7124 43.2828 43.6693 43.5252 43.5764 43.7497C43.5015 43.9166 43.3796 44.0575 43.2259 44.1545C43.0629 44.2507 42.8833 44.3146 42.6966 44.3427C42.4843 44.3749 42.2698 44.3903 42.0552 44.3888H36.4467C36.2732 45.8154 35.8818 47.206 35.2865 48.5108C34.7761 49.6024 34.041 50.5709 33.1307 51.3512C32.1794 52.141 31.0903 52.7431 29.9199 53.1264C28.5192 53.5885 27.0795 53.9189 25.6189 54.1134L25.1913 50.105Z" fill="#1C5381"/>
<path d="M54.7442 38.7648C55.4922 39.2663 56.3234 39.6271 57.1979 39.8299C58.2998 40.0871 59.4288 40.2064 60.5595 40.185H60.7417C61.1718 40.1557 61.6012 40.2518 61.9791 40.4619C62.1231 40.5718 62.2368 40.7174 62.3092 40.8846C62.3816 41.0519 62.4104 41.2353 62.3927 41.417V43.0183C62.4025 43.2615 62.3594 43.5039 62.2665 43.7283C62.1916 43.8953 62.0697 44.0361 61.916 44.133C61.753 44.2293 61.5734 44.2932 61.3867 44.3212C61.1744 44.3538 60.9599 44.3692 60.7453 44.3673H60.5174C59.1678 44.4074 57.8225 44.1944 56.5494 43.7389C55.5696 43.3649 54.6567 42.8312 53.8469 42.159C53.4566 42.7888 52.9349 43.3245 52.3186 43.7283C51.5912 44.1789 50.7484 44.4012 49.8964 44.3673H44.4141C43.9836 44.3975 43.5536 44.3001 43.1768 44.0869C43.0333 43.9773 42.92 43.8323 42.8476 43.6658C42.7752 43.4992 42.7461 43.3165 42.7632 43.1354V41.559C42.7532 41.3158 42.7962 41.0733 42.8894 40.8489C42.9642 40.681 43.0861 40.5391 43.2399 40.4407C43.4031 40.3456 43.5828 40.2829 43.7692 40.256C43.9815 40.2235 44.1959 40.208 44.4106 40.2098H49.0446C49.2768 40.214 49.506 40.1562 49.709 40.0421C49.9121 39.928 50.0819 39.7619 50.2014 39.5602C50.5252 38.9551 50.6723 38.2692 50.6255 37.5826V26.4556H54.7547L54.7442 38.7648ZM50.1873 51.3581C50.1861 51.026 50.2529 50.697 50.3836 50.3924C50.507 50.1003 50.6816 49.8332 50.8989 49.6042C51.2403 49.2536 51.6779 49.0152 52.1548 48.9196C52.6317 48.824 53.1259 48.8757 53.5734 49.0681C54.1594 49.3255 54.6268 49.7989 54.8809 50.3924C55.0743 50.845 55.1272 51.3466 55.0327 51.8304C54.9381 52.3142 54.7006 52.7574 54.3516 53.1014C54.1254 53.3215 53.8618 53.4983 53.5734 53.6233C53.204 53.7886 52.7994 53.8573 52.3969 53.8231C51.9943 53.7888 51.6068 53.6527 51.2697 53.4272C50.9327 53.2017 50.6569 52.8941 50.4678 52.5326C50.2787 52.171 50.1822 51.7673 50.1873 51.3581Z" fill="#1C5381"/>
<path d="M63.1043 44.3997C62.6727 44.4294 62.2417 44.332 61.8635 44.1192C61.72 44.0096 61.6067 43.8646 61.5342 43.6981C61.4618 43.5315 61.4328 43.3489 61.4498 43.1677V41.5594C61.4408 41.3159 61.4851 41.0734 61.5795 40.8493C61.6533 40.6807 61.7754 40.5385 61.93 40.4411C62.0923 40.3465 62.2707 40.2839 62.4558 40.2564C62.6693 40.224 62.885 40.2085 63.1008 40.2102H70.6477V26.4311H74.7769V44.3997H63.1043ZM66.5676 18.0983C66.5651 17.7675 66.6307 17.4398 66.7603 17.1362C66.8848 16.8428 67.0606 16.5746 67.2791 16.3444C67.6193 15.9931 68.0565 15.7543 68.5332 15.6592C69.0099 15.5642 69.5038 15.6174 69.9501 15.8119C70.241 15.9388 70.5061 16.1194 70.7318 16.3444C70.9548 16.5724 71.1332 16.841 71.2576 17.1362C71.4497 17.5882 71.5022 18.0885 71.4084 18.5713C71.3145 19.0542 71.0787 19.497 70.7318 19.8416C70.5038 20.0611 70.2391 20.2378 69.9501 20.3635C69.5809 20.5301 69.1762 20.5997 68.7735 20.5659C68.3707 20.5321 67.9828 20.3961 67.6457 20.1703C67.3085 19.9445 67.033 19.6363 66.8446 19.2742C66.6561 18.9121 66.5609 18.5076 66.5676 18.0983ZM73.1049 18.0983C73.1019 17.7671 73.1688 17.4391 73.3012 17.1362C73.4232 16.8423 73.5979 16.5738 73.8164 16.3444C74.1567 15.9931 74.5938 15.7543 75.0705 15.6592C75.5473 15.5642 76.0412 15.6174 76.4875 15.8119C76.7784 15.9388 77.0434 16.1194 77.2691 16.3444C77.4921 16.5724 77.6705 16.841 77.7949 17.1362C77.987 17.5882 78.0395 18.0885 77.9457 18.5713C77.8518 19.0542 77.616 19.497 77.2691 19.8416C77.0411 20.0611 76.7765 20.2378 76.4875 20.3635C76.1183 20.5301 75.7136 20.5997 75.3108 20.5659C74.908 20.5321 74.5202 20.3961 74.183 20.1703C73.8459 19.9445 73.5704 19.6363 73.3819 19.2742C73.1935 18.9121 73.0982 18.5076 73.1049 18.0983Z" fill="#1C5381"/>
<path d="M90.0423 2.12829C89.8608 2.0857 89.677 2.05369 89.4919 2.03242C89.2254 2.00155 88.9575 1.98619 88.6892 1.9863C88.12 1.96295 87.5556 2.1006 87.0593 2.38391C86.8429 2.52397 86.6686 2.72159 86.5555 2.95513C86.4424 3.18866 86.3948 3.44913 86.4178 3.7082C86.4216 4.01359 86.4922 4.31441 86.6246 4.58878C86.7712 4.89486 86.9817 5.16501 87.2416 5.38051C87.5553 5.6327 87.9116 5.82512 88.2931 5.94852C88.7787 6.10662 89.287 6.18107 89.7969 6.16869H90.4629V8.12141H83.3507V6.16869H85.9621C85.7969 6.05261 85.6431 5.92059 85.5029 5.77456C85.3175 5.58231 85.1563 5.36765 85.0227 5.13547C84.8608 4.86097 84.7291 4.56928 84.6301 4.26564C84.5207 3.91187 84.4675 3.54275 84.4724 3.17208C84.4733 2.76928 84.5544 2.37087 84.7108 2.00052C84.8799 1.6098 85.1353 1.26358 85.4574 0.988621C85.8333 0.672403 86.265 0.431433 86.7298 0.27854C87.3119 0.0904065 87.9206 0.000447701 88.5315 0.0122593C88.7909 0.0122593 89.0713 0.0122836 89.3692 0.0371364C89.696 0.0551814 90.0214 0.0931452 90.3437 0.150774L90.0423 2.12829ZM84.9491 11.0256H89.0783V44.3994H84.9491V11.0256Z" fill="#1C5381"/>
</svg>
