<svg width="512" height="512" viewBox="0 0 512 512" fill="none" xmlns="http://www.w3.org/2000/svg">
<rect width="512" height="512" rx="256" fill="#1C5381"/>
<path d="M308.949 210.242C308.949 209.779 308.807 209.327 308.541 208.948C308.276 208.57 307.9 208.283 307.467 208.128C307.033 207.974 306.562 207.958 306.119 208.084C305.676 208.21 305.283 208.471 304.993 208.832C289.997 228.572 289.255 239.271 289.008 250.302C288.761 261.333 294.199 453.506 289.75 463.625C285.301 473.744 307.136 449.028 308.536 436.421C309.772 425.141 308.042 237.612 308.949 210.242Z" fill="#F5CA6E"/>
<path d="M308.949 210.242C308.949 209.779 308.807 209.327 308.541 208.948C308.276 208.57 307.9 208.283 307.467 208.128C307.033 207.974 306.562 207.958 306.119 208.084C305.676 208.21 305.283 208.471 304.993 208.832C289.997 228.572 289.255 239.271 289.008 250.302C288.761 261.333 294.199 453.506 289.75 463.625C285.301 473.744 307.136 449.028 308.536 436.421C309.772 425.141 308.042 237.612 308.949 210.242Z" fill="white"/>
<path d="M242.967 295.847C242.174 295.395 241.29 295.116 240.375 295.029C239.46 294.942 238.537 295.05 237.669 295.345C236.801 295.64 236.009 296.115 235.347 296.737C234.686 297.359 234.17 298.113 233.836 298.948L230.412 307.538C229.889 308.886 229.863 310.369 230.339 311.733C230.815 313.098 231.764 314.258 233.021 315.014L241.174 320.104C241.984 320.582 242.893 320.878 243.834 320.969C244.776 321.061 245.727 320.946 246.618 320.634C247.508 320.322 248.316 319.819 248.982 319.163C249.649 318.508 250.156 317.715 250.469 316.844L253.648 307.777C254.13 306.433 254.117 304.967 253.611 303.632C253.105 302.297 252.138 301.175 250.876 300.46L242.967 295.847Z" fill="white"/>
<path d="M267.505 282.845C266.678 282.394 265.756 282.115 264.803 282.029C263.85 281.943 262.888 282.05 261.984 282.344C261.08 282.638 260.255 283.112 259.565 283.733C258.876 284.354 258.338 285.107 257.99 285.94L254.422 294.591C253.883 295.925 253.86 297.392 254.356 298.74C254.852 300.088 255.837 301.231 257.141 301.973L265.636 307.052C266.47 307.546 267.413 307.856 268.394 307.961C269.375 308.065 270.369 307.961 271.301 307.655C272.233 307.35 273.078 306.851 273.774 306.197C274.47 305.543 274.999 304.75 275.32 303.877L278.633 294.829C279.135 293.488 279.122 292.026 278.595 290.693C278.068 289.361 277.06 288.241 275.745 287.528L267.505 282.845Z" fill="white"/>
<path d="M268.738 340.085C250.318 322.866 232.871 335.284 230.761 357.304C228.651 379.324 237.091 384.208 252.914 381.477C265.086 379.324 270.36 373.198 272.957 375.019C275.554 376.841 268.738 384.705 260.866 389.01C257.68 390.685 254.21 391.725 250.642 392.073C248.176 392.382 245.914 393.627 244.305 395.559C242.697 397.491 241.859 399.97 241.959 402.503V403.579C241.959 403.579 241.959 403.993 241.959 404.159C242.031 405.091 242.222 406.009 242.527 406.891C242.957 409.331 244.187 411.55 246.017 413.182C248.014 416.305 249.316 419.838 249.831 423.53C250.723 432.802 243.988 448.365 225 467.405C233.228 469.532 241.846 469.532 250.074 467.405C260.623 463.68 259.162 451.759 256.241 437.686C254.05 427.007 252.752 419.06 257.296 414.01C263.42 412.422 269.07 409.328 273.751 404.999C278.433 400.67 282.005 395.237 284.155 389.175C285.708 380.33 285.114 371.232 282.427 362.675C279.739 354.119 275.04 346.363 268.738 340.085Z" fill="white"/>
<path d="M221.987 250.161C221.987 239.332 221.085 228.668 206.17 208.829C205.882 208.47 205.491 208.21 205.051 208.084C204.61 207.959 204.142 207.974 203.711 208.128C203.279 208.282 202.905 208.568 202.641 208.945C202.377 209.322 202.236 209.773 202.237 210.234C203.056 237.513 201.417 424.414 202.237 435.491C203.63 448.056 225.347 472.772 220.839 462.605C216.332 452.437 222.315 261.899 221.987 250.161Z" fill="white"/>
<path d="M234.722 117.991H276.452C276.9 117.998 277.341 117.882 277.731 117.656C278.12 117.43 278.443 117.103 278.666 116.707C278.889 116.311 279.005 115.862 279 115.405C278.995 114.949 278.871 114.502 278.639 114.111L275.885 109.24C275.664 108.855 275.366 108.522 275.009 108.263C274.653 108.005 274.247 107.827 273.817 107.741C273.388 107.655 272.946 107.663 272.52 107.765C272.094 107.867 271.694 108.06 271.347 108.332C270.157 109.319 268.78 110.048 267.303 110.474C265.826 110.9 264.28 111.014 262.758 110.809C260.153 110.503 257.721 109.325 255.845 107.458C253.969 105.592 252.756 103.143 252.394 100.497C252.032 97.8515 252.543 95.1581 253.847 92.8404C255.151 90.5228 257.174 88.7122 259.598 87.693C260.015 87.5388 260.393 87.2922 260.705 86.971C261.018 86.6497 261.256 86.2618 261.403 85.8353C261.551 85.4088 261.603 84.9544 261.557 84.5047C261.511 84.055 261.368 83.6213 261.137 83.235L257.815 77.2909C257.585 76.8975 257.259 76.5716 256.868 76.3453C256.478 76.119 256.036 76 255.587 76C255.137 76 254.695 76.119 254.305 76.3453C253.914 76.5716 253.588 76.8975 253.358 77.2909L239.178 102.058C239.058 102.286 238.995 102.541 238.995 102.801C238.995 103.06 239.058 103.315 239.178 103.544L240.15 105.195C240.283 105.411 240.355 105.659 240.36 105.914C240.364 106.168 240.301 106.42 240.176 106.64C240.051 106.861 239.869 107.042 239.651 107.166C239.432 107.289 239.185 107.35 238.935 107.341H236.99C236.744 107.357 236.505 107.433 236.294 107.562C236.082 107.691 235.904 107.87 235.775 108.084L232.534 113.863C232.232 114.255 232.05 114.729 232.009 115.225C231.968 115.721 232.07 116.219 232.302 116.657C232.534 117.095 232.886 117.455 233.316 117.692C233.746 117.929 234.235 118.033 234.722 117.991Z" fill="white"/>
<path d="M263.261 67.0602C264.746 66.1089 266.023 64.8489 267.011 63.3602C267.999 61.8714 268.676 60.1866 269 58.4128C268.204 60.1547 266.928 61.6157 265.333 62.613C264.214 63.4383 262.942 64.0171 261.597 64.3136C260.251 64.6102 258.862 64.618 257.514 64.3368C256.165 64.0555 254.887 63.491 253.759 62.6784C252.63 61.8658 251.675 60.8225 250.953 59.6129C250.231 58.4033 249.757 57.0534 249.561 55.6468C249.364 54.2402 249.45 52.8069 249.812 51.4357C250.174 50.0646 250.804 48.7849 251.664 47.6759C252.524 46.5669 253.596 45.6523 254.812 44.9888C256.373 43.9399 258.212 43.4216 260.072 43.5064C257.628 42.7805 255.029 42.8361 252.616 43.666C250.203 44.4958 248.09 46.061 246.555 48.1556C245.019 50.2501 244.133 52.7759 244.014 55.4005C243.894 58.0252 244.547 60.6257 245.885 62.86C247.66 65.786 250.482 67.869 253.736 68.6557C256.991 69.4423 260.414 68.8689 263.261 67.0602Z" fill="white"/>
<path d="M218 149H295V143.953C295.01 142.256 294.696 140.574 294.073 139.003C293.451 137.432 292.533 136.003 291.373 134.799C290.213 133.595 288.834 132.64 287.315 131.988C285.796 131.336 284.166 131 282.52 131H230.48C228.835 131 227.205 131.336 225.686 131.988C224.166 132.64 222.787 133.595 221.627 134.799C220.467 136.003 219.549 137.432 218.927 139.003C218.304 140.574 217.99 142.256 218 143.953V149Z" fill="white"/>
<path d="M230.48 200H282.52C284.162 200.01 285.789 199.702 287.309 199.092C288.828 198.482 290.208 197.583 291.369 196.447C292.53 195.311 293.449 193.96 294.072 192.474C294.696 190.988 295.011 189.395 295 187.789V183H218V187.789C217.989 189.395 218.305 190.988 218.928 192.474C219.552 193.96 220.471 195.311 221.632 196.447C222.793 197.583 224.172 198.482 225.692 199.092C227.211 199.702 228.838 200.01 230.48 200Z" fill="white"/>
<path d="M283.628 150H284.041C285.413 151.545 286.329 153.445 286.686 155.485C286.674 156.449 286.842 157.408 287.182 158.31C288.339 161.278 288.955 164.431 289 167.618V180H279V167.618C279.073 164.426 279.716 161.273 280.901 158.31C281.033 157.373 281.033 156.422 280.901 155.485C281.313 153.447 282.254 151.555 283.628 150Z" fill="white"/>
<path d="M283.628 150H284.041C285.413 151.545 286.329 153.445 286.686 155.485C286.674 156.449 286.842 157.408 287.182 158.31C288.339 161.278 288.955 164.431 289 167.618V180H279V167.618C279.073 164.426 279.716 161.273 280.901 158.31C281.033 157.373 281.033 156.422 280.901 155.485C281.313 153.447 282.254 151.555 283.628 150Z" fill="white"/>
<path d="M229.835 150C231.099 151.533 231.951 153.434 232.289 155.485C232.17 156.422 232.17 157.373 232.289 158.31C233.355 161.273 233.934 164.426 234 167.618V180H225V167.618C225.04 164.431 225.594 161.278 226.636 158.31C226.905 157.397 227.055 156.446 227.082 155.485C227.546 153.415 228.496 151.521 229.835 150Z" fill="white"/>
<path d="M229.835 150C231.099 151.533 231.951 153.434 232.289 155.485C232.17 156.422 232.17 157.373 232.289 158.31C233.355 161.273 233.934 164.426 234 167.618V180H225V167.618C225.04 164.431 225.594 161.278 226.636 158.31C226.905 157.397 227.055 156.446 227.082 155.485C227.546 153.415 228.496 151.521 229.835 150Z" fill="white"/>
<path d="M265.885 150H266.459C266.459 150 270.557 153.075 270.557 155.485C270.551 156.476 270.806 157.452 271.295 158.31C272.955 161.133 273.885 164.334 274 167.618V180H259V167.618C259.115 164.334 260.045 161.133 261.705 158.31C262.194 157.452 262.449 156.476 262.443 155.485C262.443 153.075 265.885 150 265.885 150Z" fill="white"/>
<path d="M265.885 150H266.459C266.459 150 270.557 153.075 270.557 155.485C270.551 156.476 270.806 157.452 271.295 158.31C272.955 161.133 273.885 164.334 274 167.618V180H259V167.618C259.115 164.334 260.045 161.133 261.705 158.31C262.194 157.452 262.449 156.476 262.443 155.485C262.443 153.075 265.885 150 265.885 150Z" fill="white"/>
<path d="M245.391 150H246C246 150 250.261 153.075 250.261 155.485C250.254 156.476 250.524 157.452 251.044 158.31C252.831 161.126 253.848 164.327 254 167.618V180H238V167.618C238.152 164.327 239.169 161.126 240.956 158.31C241.439 157.438 241.707 156.471 241.739 155.485C241.739 153.075 245.391 150 245.391 150Z" fill="white"/>
<path d="M245.391 150H246C246 150 250.261 153.075 250.261 155.485C250.254 156.476 250.524 157.452 251.044 158.31C252.831 161.126 253.848 164.327 254 167.618V180H238V167.618C238.152 164.327 239.169 161.126 240.956 158.31C241.439 157.438 241.707 156.471 241.739 155.485C241.739 153.075 245.391 150 245.391 150Z" fill="white"/>
<path d="M255.929 224H256.5C256.5 224 260.495 227.149 260.495 229.47C260.475 230.46 260.73 231.436 261.228 232.287C262.904 235.096 263.857 238.288 264 241.569V254H249V241.569C249.143 238.288 250.096 235.096 251.772 232.287C252.232 231.42 252.484 230.455 252.505 229.47C252.505 227.149 255.929 224 255.929 224Z" fill="white"/>
<path d="M255.929 224H256.5C256.5 224 260.495 227.149 260.495 229.47C260.475 230.46 260.73 231.436 261.228 232.287C262.904 235.096 263.857 238.288 264 241.569V254H249V241.569C249.143 238.288 250.096 235.096 251.772 232.287C252.232 231.42 252.484 230.455 252.505 229.47C252.505 227.149 255.929 224 255.929 224Z" fill="white"/>
</svg>
