<svg width="48" height="48" viewBox="0 0 48 48" fill="none" xmlns="http://www.w3.org/2000/svg">
<g clip-path="url(#clip0_19_999)">
<path d="M48 40.5259C48 44.6535 44.6535 48 40.5259 48H7.41435C3.3193 48 0 44.6807 0 40.5866V7.14732C0 3.19982 3.19982 0 7.14732 0H40.8527C44.8002 0 48 3.19982 48 7.14641V40.5259Z" fill="#FDB913"/>
<path d="M4.52867 18.6819V30.8801L2.3517 31.3689V19.1707L4.52867 18.6819ZM10.292 20.2551C8.94867 20.5565 8.12405 22.0691 8.12405 22.0691V20.9322L6.01135 21.3929V28.6706C6.26933 28.5719 6.54903 28.5149 6.84141 28.5149C7.3121 28.5149 7.7493 28.6561 8.115 28.8969V25.344C8.13129 23.6423 8.61918 22.6484 9.63842 22.4194C10.5336 22.2184 10.8695 22.8856 10.855 23.9157V29.4726L12.9288 29.0046L12.9432 23.4649C12.9613 20.7521 11.867 19.9012 10.292 20.2551ZM13.4311 19.7265L14.6196 19.4595V17.7523L16.7215 17.2843V18.9879L18.2177 18.6511L18.1969 20.4959L16.6988 20.8326L16.688 25.4518C16.6979 26.0157 16.7966 26.3651 17.4293 26.223C17.6764 26.1678 17.8738 26.1053 18.0992 26.0193L18.1046 27.7518C17.5796 28.0008 17.2628 28.1012 16.831 28.1981C15.6289 28.476 14.5916 27.6939 14.5916 26.0962L14.5988 21.3042L13.4094 21.5712L13.4311 19.7265ZM20.7504 23.2196C20.7513 23.4142 20.7459 23.5735 20.7776 23.7609C20.9351 24.6968 21.3949 25.4237 22.3408 25.2119C23.2098 25.0173 23.4986 24.4398 23.6651 23.8025L25.8674 23.3083C25.6375 24.7195 24.8744 26.4981 22.4703 27.0367C20.3141 27.5201 19.0107 26.2755 18.6531 24.1483C18.2612 21.8165 18.8686 18.3425 22.0639 17.6256C24.4219 17.0969 25.5253 18.4918 25.8285 20.2958C25.9489 21.0109 25.9417 21.5423 25.9 22.0637L20.7504 23.2196ZM23.8099 20.9268C23.8154 20.7665 23.7928 20.6308 23.7756 20.5285C23.647 19.7627 23.2252 19.168 22.2947 19.3771C21.3325 19.5925 20.8582 20.4054 20.7703 21.6084L23.8099 20.9268ZM31.1012 18.2456C29.6375 18.5923 28.9315 19.6124 28.9233 21.6129L28.9043 25.4146L26.8043 25.8862V16.7222L28.831 16.2678C28.8572 16.4923 28.9052 17.1712 28.9016 17.9152C29.2429 16.7421 29.7108 16.1392 31.1003 15.8279V18.2456H31.1012ZM38.5608 23.1797L38.549 23.1825L36.4409 23.6586C36.296 23.3952 36.1503 22.977 36.0869 22.6828C35.7882 23.3155 35.3791 24.0442 33.8964 24.3773C32.3214 24.7312 31.4262 23.6586 31.2306 22.6231C30.7681 20.18 32.5214 18.9933 34.3155 18.5362C34.9609 18.3714 35.504 18.2746 36.1168 18.1198L36.086 17.5703C36.0725 16.9014 35.9177 16.0867 34.7907 16.3402C33.7869 16.5656 33.7344 17.201 33.6448 17.6636L31.4986 18.1451C31.5257 16.6706 32.1693 15.2476 34.6549 14.6891C36.6002 14.2519 38.2177 14.8294 38.2033 17.2209V21.5676C38.2033 21.5676 38.2548 22.3008 38.3381 22.6538C38.4223 23.0123 38.5608 23.1797 38.5608 23.1797ZM36.0842 19.6052C35.5592 19.7229 35.1175 19.8577 34.7111 20.0026C33.576 20.4696 33.1931 20.9983 33.3343 21.7441C33.4302 22.2528 33.7977 22.5778 34.4775 22.4248C35.9285 22.099 36.0553 20.7258 36.0797 19.7482L36.0842 19.6052ZM46.1363 18.4384C46.0186 20.1981 45.1976 21.8156 42.8351 22.3461C40.812 22.8005 39.4995 21.7333 39.1012 19.6287C38.6196 17.0833 39.3474 13.612 42.3119 12.9467C44.9061 12.3637 45.9362 14.2384 46.0403 15.3825L44.0018 15.8405C43.8579 15.1653 43.5257 14.5144 42.5834 14.7263C41.1007 15.0594 40.9767 17.6346 41.2429 19.0431C41.4737 20.2651 42.0249 20.7068 42.7808 20.5375C43.4759 20.3818 43.8742 19.8496 44.0344 18.9118L46.1363 18.4384ZM11.6497 34.0166L8.67712 31.9935C8.67712 31.9935 8.67621 36.7403 8.67621 36.9584C8.67621 37.1105 8.5522 37.2345 8.40103 37.2345C8.24896 37.2345 8.12676 37.1105 8.12676 36.9584C8.12676 36.905 8.12043 31.5301 8.12043 30.8738C8.12043 30.1705 7.54926 29.5975 6.84593 29.5975C6.13989 29.5975 5.56962 30.1705 5.56962 30.8738L5.57143 41.4744C5.57143 43.3771 7.1202 44.9286 9.0238 44.9286H9.25191C11.1293 44.9286 12.6364 43.407 12.6364 41.5287C12.6364 41.5287 12.6382 35.9908 12.6382 35.9347C12.6382 35.1988 12.2318 34.4628 11.6497 34.0166ZM3.02425 32.4361C2.49834 32.5629 2.17338 33.0915 2.30011 33.6174C2.42683 34.1433 2.95546 34.4683 3.48137 34.3416L4.96677 33.9849V31.9691L3.02425 32.4361ZM3.02425 35.0331C2.49834 35.1598 2.17338 35.6885 2.30011 36.2144C2.42683 36.7403 2.95546 37.0652 3.48137 36.9385L4.96677 36.5819V34.566L3.02425 35.0331ZM2.30011 38.8122C2.42593 39.3382 2.95546 39.6631 3.48137 39.5364L4.96677 39.1798V37.1639L3.02425 37.6301C2.49834 37.7568 2.17429 38.2863 2.30011 38.8122Z" fill="#231F20"/>
</g>
<defs>
<clipPath id="clip0_19_999">
<rect width="48" height="48" fill="white"/>
</clipPath>
</defs>
</svg>
