<svg width="20" height="20" viewBox="0 0 20 20" fill="none" xmlns="http://www.w3.org/2000/svg">
<path d="M7.05418 17.1123C5.36905 17.1123 3.84983 16.0972 3.20485 14.5404C2.55987 12.9836 2.91613 11.1915 4.10752 9.99977L5.87585 8.23144L7.05418 9.40977L5.28668 11.1773C4.65507 11.8089 4.40839 12.7295 4.63958 13.5923C4.87077 14.4551 5.54469 15.129 6.4075 15.3602C7.2703 15.5914 8.1909 15.3447 8.82252 14.7131L10.59 12.9456L11.7683 14.1248L10.0008 15.8923C9.22091 16.6761 8.1599 17.1153 7.05418 17.1123ZM7.64335 13.5348L6.46502 12.3564L12.3575 6.46394L13.5358 7.64227L7.64418 13.5339L7.64335 13.5348ZM14.1258 11.7673L12.9467 10.5889L14.7142 8.82144C15.3544 8.19171 15.6077 7.26699 15.3777 6.39892C15.1478 5.53085 14.4699 4.85281 13.6019 4.62264C12.7338 4.39247 11.8091 4.64554 11.1792 5.28561L9.41085 7.05311L8.23252 5.87477L10.0008 4.10644C11.6301 2.49141 14.2583 2.49717 15.8805 4.11931C17.5026 5.74146 17.5084 8.3697 15.8933 9.99894L14.1258 11.7664V11.7673Z" fill="white"/>
</svg>
