<svg width="24" height="24" viewBox="0 0 24 24" fill="none" xmlns="http://www.w3.org/2000/svg">
<path d="M8.46498 20.535C6.44282 20.535 4.61976 19.3169 3.84578 17.4488C3.07181 15.5806 3.49931 13.4301 4.92898 12L7.05098 9.87802L8.46498 11.292L6.34398 13.413C5.58604 14.171 5.29004 15.2757 5.56746 16.311C5.84488 17.3464 6.6536 18.1551 7.68896 18.4325C8.72432 18.71 9.82904 18.414 10.587 17.656L12.708 15.535L14.122 16.95L12.001 19.071C11.0651 20.0116 9.79184 20.5387 8.46498 20.535ZM9.17198 16.242L7.75798 14.828L14.829 7.75702L16.243 9.17102L9.17298 16.241L9.17198 16.242ZM16.951 14.121L15.536 12.707L17.657 10.586C18.4252 9.83035 18.7292 8.72069 18.4532 7.679C18.1773 6.63732 17.3638 5.82367 16.3222 5.54746C15.2806 5.27126 14.1708 5.57494 13.415 6.34302L11.293 8.46402L9.87898 7.05002L12.001 4.92802C13.9561 2.98999 17.11 2.99689 19.0565 4.94347C21.0031 6.89005 21.01 10.0439 19.072 11.999L16.951 14.12V14.121Z" fill="white"/>
</svg>
