<svg width="103" height="103" viewBox="0 0 103 103" fill="none" xmlns="http://www.w3.org/2000/svg">
<g id="Calque_1" clip-path="url(#clip0_13_812)">
<g id="Vector">
<path d="M22.1701 34.7751C22.1702 34.679 22.1407 34.5852 22.0859 34.5066C22.031 34.428 21.9534 34.3686 21.8638 34.3365C21.7741 34.3044 21.6768 34.3012 21.5853 34.3273C21.4937 34.3535 21.4125 34.4077 21.3527 34.4825C18.2536 38.5798 18.1004 40.8005 18.0493 43.0902C17.9982 45.3799 19.1221 85.268 18.2026 87.3683C17.2831 89.4686 21.7954 84.3384 22.0848 81.7217C22.3403 79.3804 21.9828 40.4562 22.1701 34.7751Z" fill="#F5CA6E"/>
<path d="M22.1701 34.7751C22.1702 34.679 22.1407 34.5852 22.0859 34.5066C22.031 34.428 21.9534 34.3686 21.8638 34.3365C21.7741 34.3044 21.6768 34.3012 21.5853 34.3273C21.4937 34.3535 21.4125 34.4077 21.3527 34.4825C18.2536 38.5798 18.1004 40.8005 18.0493 43.0902C17.9982 45.3799 19.1221 85.268 18.2026 87.3683C17.2831 89.4686 21.7954 84.3384 22.0848 81.7217C22.3403 79.3804 21.9828 40.4562 22.1701 34.7751Z" fill="url(#paint0_linear_13_812)"/>
</g>
<path id="Vector_2" d="M8.47972 52.3866C8.31399 52.2888 8.12928 52.2284 7.93825 52.2096C7.74723 52.1909 7.55445 52.2142 7.3732 52.2781C7.19194 52.3419 7.02646 52.4446 6.88827 52.5793C6.75007 52.7139 6.64241 52.8773 6.57264 53.058L5.85751 54.9173C5.74828 55.209 5.7429 55.5301 5.84233 55.8254C5.94176 56.1207 6.13981 56.3718 6.4024 56.5355L8.10516 57.6373C8.27429 57.7408 8.46408 57.8047 8.66076 57.8246C8.85744 57.8444 9.05604 57.8196 9.24203 57.7519C9.42803 57.6843 9.59676 57.5756 9.7359 57.4336C9.87504 57.2917 9.98111 57.1201 10.0463 56.9315L10.7103 54.9689C10.811 54.6781 10.8082 54.3608 10.7025 54.0718C10.5969 53.7827 10.395 53.5399 10.1315 53.3851L8.47972 52.3866Z" fill="url(#paint1_linear_13_812)"/>
<path id="Vector_3" d="M13.5709 49.7355C13.4051 49.6376 13.2204 49.5773 13.0294 49.5585C12.8384 49.5398 12.6456 49.5631 12.4644 49.6269C12.2831 49.6907 12.1177 49.7935 11.9795 49.9282C11.8413 50.0628 11.7336 50.2261 11.6638 50.4069L10.9487 52.2834C10.8406 52.5726 10.8359 52.8909 10.9354 53.1833C11.0349 53.4757 11.2323 53.7237 11.4936 53.8844L13.1963 54.9862C13.3635 55.0933 13.5526 55.1606 13.7492 55.1833C13.9459 55.206 14.1451 55.1833 14.3318 55.1171C14.5186 55.0508 14.6881 54.9427 14.8276 54.8008C14.9671 54.6588 15.0731 54.4868 15.1375 54.2976L15.8015 52.335C15.9021 52.0441 15.8995 51.7269 15.7938 51.4379C15.6881 51.1488 15.4862 50.906 15.2226 50.7512L13.5709 49.7355Z" fill="url(#paint2_linear_13_812)"/>
<path id="Vector_4" d="M13.8775 61.769C10.0122 58.1882 6.3512 60.7706 5.90848 65.3499C5.46576 69.9292 7.2367 70.9449 10.5571 70.3768C13.1112 69.9292 14.218 68.6552 14.7629 69.034C15.3077 69.4127 13.8774 71.0482 12.2258 71.9434C11.5572 72.2918 10.829 72.508 10.0803 72.5803C9.56273 72.6447 9.08813 72.9035 8.75061 73.3054C8.41308 73.7072 8.2373 74.2227 8.2583 74.7495V74.9733C8.2583 74.9733 8.2583 75.0594 8.2583 75.0938C8.27345 75.2876 8.31353 75.4786 8.3775 75.6619C8.46769 76.1694 8.72587 76.6308 9.10968 76.9703C9.52889 77.6198 9.80213 78.3544 9.91003 79.1222C10.0973 81.0503 8.68405 84.2868 4.69958 88.2464C6.42615 88.6887 8.2345 88.6887 9.96106 88.2464C12.1746 87.4717 11.8682 84.9927 11.2552 82.066C10.7954 79.8452 10.523 78.1926 11.4765 77.1424C12.7616 76.8121 13.9471 76.1687 14.9296 75.2684C15.912 74.3681 16.6615 73.2384 17.1127 71.9778C17.4384 70.1384 17.3139 68.2464 16.75 66.4669C16.186 64.6874 15.1999 63.0745 13.8775 61.769Z" fill="url(#paint3_linear_13_812)"/>
<path id="Vector_5" d="M4.12066 43.0558C4.12066 40.8005 3.93337 38.5797 0.834342 34.448C0.774558 34.3732 0.693283 34.319 0.60175 34.2929C0.510218 34.2668 0.412985 34.27 0.323327 34.3021C0.233668 34.3342 0.155979 34.3936 0.101128 34.4722C0.0462764 34.5507 0.0169462 34.6445 0.01705 34.7407C0.187326 40.4218 -0.153226 79.3459 0.01705 81.6528C0.306519 84.2695 4.81876 89.417 3.88225 87.2995C2.94573 85.182 4.18877 45.5004 4.12066 43.0558Z" fill="url(#paint4_linear_13_812)"/>
<path id="Vector_6" d="M6.70889 15.5628H15.4782C15.5723 15.5642 15.6651 15.5401 15.7469 15.493C15.8287 15.4459 15.8965 15.3776 15.9434 15.295C15.9903 15.2125 16.0146 15.1188 16.0136 15.0236C16.0126 14.9284 15.9864 14.8352 15.9378 14.7537L15.3589 13.738C15.3127 13.6576 15.2499 13.5882 15.175 13.5343C15.1001 13.4804 15.0148 13.4432 14.9245 13.4253C14.8343 13.4074 14.7413 13.4091 14.6518 13.4304C14.5623 13.4516 14.4783 13.4919 14.4054 13.5486C14.1552 13.7545 13.8661 13.9065 13.5557 13.9953C13.2453 14.0841 12.9203 14.1079 12.6005 14.0651C12.0531 14.0013 11.5421 13.7556 11.1479 13.3664C10.7537 12.9772 10.4986 12.4666 10.4226 11.9148C10.3465 11.3631 10.454 10.8014 10.728 10.3181C11.002 9.83483 11.4271 9.45727 11.9364 9.24475C12.024 9.2126 12.1036 9.16116 12.1692 9.09418C12.2348 9.02719 12.2849 8.9463 12.3158 8.85736C12.3468 8.76843 12.3578 8.67366 12.3481 8.57989C12.3385 8.48611 12.3083 8.39568 12.2599 8.31511L11.5617 7.0756C11.5134 6.99355 11.4449 6.92559 11.3628 6.8784C11.2807 6.83121 11.188 6.8064 11.0935 6.8064C10.9991 6.8064 10.9062 6.83121 10.8241 6.8784C10.7421 6.92559 10.6735 6.99355 10.6252 7.0756L7.64539 12.2402C7.62005 12.2879 7.60683 12.3411 7.60683 12.3952C7.60683 12.4492 7.62005 12.5025 7.64539 12.5501L7.84971 12.8944C7.87755 12.9394 7.89275 12.9913 7.89367 13.0444C7.8946 13.0974 7.88126 13.1498 7.85501 13.1958C7.82877 13.2418 7.79067 13.2797 7.74475 13.3054C7.69883 13.3312 7.64685 13.3438 7.59436 13.342H7.18561C7.13388 13.3453 7.08373 13.361 7.03928 13.388C6.99483 13.415 6.95744 13.4523 6.93026 13.497L6.24911 14.702C6.1858 14.7838 6.14752 14.8825 6.13885 14.986C6.13018 15.0894 6.15157 15.1932 6.20037 15.2846C6.24917 15.3759 6.3232 15.4509 6.41353 15.5004C6.50386 15.5498 6.60654 15.5715 6.70889 15.5628Z" fill="url(#paint5_linear_13_812)"/>
<path id="Vector_7" d="M12.6514 5.04412C12.9686 4.84527 13.2414 4.58188 13.4525 4.27068C13.6636 3.95948 13.8083 3.60729 13.8775 3.23649C13.7074 3.60063 13.4349 3.90601 13.0942 4.11449C12.855 4.28701 12.5833 4.40801 12.2959 4.46999C12.0085 4.53198 11.7116 4.53362 11.4236 4.47483C11.1356 4.41603 10.8626 4.29803 10.6215 4.12817C10.3804 3.95831 10.1764 3.7402 10.0222 3.48736C9.86789 3.23452 9.76666 2.95233 9.72471 2.65829C9.68276 2.36426 9.70105 2.06465 9.77834 1.77803C9.85562 1.49142 9.99024 1.2239 10.174 0.992085C10.3577 0.760266 10.5867 0.569084 10.8465 0.430382C11.18 0.211118 11.5729 0.102769 11.9703 0.120503C11.4482 -0.0312334 10.8928 -0.0196041 10.3774 0.153865C9.86192 0.327333 9.41056 0.654516 9.08254 1.09235C8.75452 1.53019 8.56526 2.05817 8.53972 2.60682C8.51418 3.15547 8.65353 3.69908 8.93943 4.16613C9.31863 4.77777 9.92151 5.2132 10.6167 5.37764C11.3119 5.54208 12.0432 5.42221 12.6514 5.04412Z" fill="url(#paint6_linear_13_812)"/>
<path id="Vector_8" d="M39.0784 61.1836C40.7126 61.1691 42.333 61.4879 43.8426 62.1208C45.3522 62.7538 46.7201 63.6879 47.8645 64.8675C49.0089 66.047 49.9064 67.4477 50.5032 68.9859C51.1001 70.5241 51.3841 72.1681 51.3383 73.8198C51.3383 82.0316 45.668 87.1618 38.7037 87.1618C37.0502 87.1786 35.4103 86.858 33.8822 86.2192C32.3541 85.5804 30.9692 84.6364 29.8103 83.4439C28.6514 82.2513 27.7423 80.8346 27.1376 79.2785C26.5328 77.7225 26.2448 76.0591 26.2907 74.3879C26.2305 72.6608 26.5181 70.9394 27.1359 69.328C27.7537 67.7167 28.689 66.2491 29.8849 65.0143C31.0808 63.7795 32.5123 62.8032 34.0927 62.1447C35.673 61.4862 37.3693 61.1593 39.0784 61.1836ZM38.3292 62.5953C34.0893 62.5953 30.224 66.1934 30.224 73.355C30.224 80.5166 34.0893 85.7157 39.453 85.7157C43.6928 85.7157 47.49 82.2726 47.49 74.8871C47.49 66.8475 43.2842 62.5953 38.4143 62.5953H38.3292ZM40.8663 84.6827C44.4179 87.5847 48.3486 89.9772 52.5472 91.7927L52.2918 92.7223C50.5765 92.7369 48.8644 92.5696 47.1836 92.2231C44.5613 91.4828 40.1001 88.1947 36.967 86.0255L40.8663 84.6827Z" fill="white"/>
<path id="Vector_9" d="M77.4586 86.9035C76.9648 86.9035 76.5391 86.9035 76.0453 86.8174C74.8632 86.846 73.6949 86.5567 72.6598 85.9789C71.6246 85.4012 70.7598 84.5558 70.1538 83.5293C68.7405 81.5839 67.3783 79.1738 66.1693 77.2112C65.4201 75.9889 64.9263 75.7651 63.0022 75.7651H61.674V81.7733C61.674 85.027 62.0827 85.2164 65.0795 85.5262V86.5936H54.9822V85.4574C58.1153 85.1131 58.3877 84.9582 58.3877 81.7044V66.5204C58.3877 63.2667 57.962 63.0773 54.9822 62.8191V61.7345H64.6199C66.7243 61.5497 68.8353 62.0053 70.6817 63.0429C71.5063 63.5858 72.177 64.3363 72.6278 65.2207C73.0787 66.1051 73.2941 67.0929 73.2529 68.087C73.2138 69.5623 72.7226 70.989 71.8472 72.1701C70.9719 73.3511 69.7555 74.2283 68.366 74.6805C69.0471 75.8512 70.6817 78.4163 71.7715 80.1378C72.6682 81.5237 73.6642 82.8414 74.7513 84.0801C75.4754 84.9336 76.4461 85.5357 77.5267 85.8017L77.4586 86.9035ZM63.4789 74.4567C64.9558 74.6155 66.4393 74.2238 67.6507 73.3549C68.3609 72.8122 68.9238 72.0967 69.287 71.275C69.6502 70.4533 69.802 69.5521 69.7281 68.6551C69.7947 67.8975 69.6948 67.1344 69.4358 66.4203C69.1768 65.7063 68.765 65.0588 68.2298 64.5243C67.6946 63.9898 67.0493 63.5814 66.3399 63.3283C65.6305 63.0752 64.8745 62.9836 64.126 63.0601C63.4341 62.986 62.7358 63.1176 62.1167 63.4388C61.7762 63.7143 61.674 64.093 61.674 65.1604V74.5256L63.4789 74.4567Z" fill="white"/>
<path id="Vector_10" d="M93.6517 86.5936V85.4574C96.1037 85.1475 96.4103 84.7688 95.8825 83.3055C95.3546 81.8421 94.6395 79.8624 93.8392 77.4866H85.6659C85.0529 79.2082 84.491 80.7059 83.9631 82.2725C83.1288 84.7688 83.6567 85.0614 86.7557 85.4574V86.5247H78.0205V85.4574C80.4044 85.1475 81.0003 84.8721 82.3284 81.429L90.1612 61.3558L91.3701 61.1147C93.754 67.6566 96.3762 74.8871 98.76 81.5151C99.969 84.8376 100.31 85.1475 103 85.4574V86.5247L93.6517 86.5936ZM89.8717 66.1933C88.6457 69.4814 87.3687 72.9762 86.2278 75.9889H93.3113L89.8717 66.1933Z" fill="white"/>
<path id="Vector_11" d="M3.25213 22.0357H19.3262V21.0027C19.3284 20.6554 19.2627 20.311 19.1328 19.9895C19.0029 19.6679 18.8113 19.3755 18.5692 19.1291C18.327 18.8827 18.0392 18.6871 17.722 18.5537C17.4048 18.4203 17.0646 18.3516 16.721 18.3516H5.8574C5.51384 18.3516 5.17367 18.4203 4.85647 18.5537C4.53928 18.6871 4.25129 18.8827 4.00914 19.1291C3.767 19.3755 3.57546 19.6679 3.44554 19.9895C3.31562 20.311 3.24989 20.6554 3.25213 21.0027V22.0357Z" fill="url(#paint7_linear_13_812)"/>
<path id="Vector_12" d="M5.85741 32.7438H16.721C17.0638 32.7461 17.4035 32.6795 17.7206 32.5479C18.0377 32.4164 18.3259 32.2225 18.5682 31.9774C18.8106 31.7324 19.0025 31.4411 19.1326 31.1205C19.2627 30.7999 19.3285 30.4564 19.3262 30.1098V29.0769H3.25213V30.1098C3.24987 30.4564 3.31573 30.7999 3.44585 31.1205C3.57598 31.4411 3.76782 31.7324 4.01018 31.9774C4.25255 32.2225 4.54062 32.4164 4.85772 32.5479C5.17482 32.6795 5.51465 32.7461 5.85741 32.7438Z" fill="url(#paint8_linear_13_812)"/>
<g id="Vector_13">
<path d="M16.8062 22.2939H16.8913C17.1739 22.6141 17.3626 23.0076 17.4362 23.4302C17.4338 23.63 17.4685 23.8285 17.5384 24.0155C17.7769 24.6302 17.9038 25.2834 17.913 25.9436V28.5087H15.8527V25.9436C15.8677 25.2823 16.0003 24.6292 16.2443 24.0155C16.2715 23.8214 16.2715 23.6243 16.2443 23.4302C16.3293 23.008 16.5231 22.616 16.8062 22.2939Z" fill="white"/>
<path d="M16.8062 22.2939H16.8913C17.1739 22.6141 17.3626 23.0076 17.4362 23.4302C17.4338 23.63 17.4685 23.8285 17.5384 24.0155C17.7769 24.6302 17.9038 25.2834 17.913 25.9436V28.5087H15.8527V25.9436C15.8677 25.2823 16.0003 24.6292 16.2443 24.0155C16.2715 23.8214 16.2715 23.6243 16.2443 23.4302C16.3293 23.008 16.5231 22.616 16.8062 22.2939Z" fill="url(#paint9_linear_13_812)"/>
</g>
<g id="Vector_14">
<path d="M5.60209 22.2939C5.89165 22.6115 6.08648 23.0054 6.16403 23.4302C6.13679 23.6243 6.13679 23.8214 6.16403 24.0155C6.40801 24.6292 6.54064 25.2823 6.55564 25.9436V28.5087H4.49536V25.9436C4.50456 25.2834 4.63141 24.6302 4.86992 24.0155C4.93147 23.8263 4.96587 23.6292 4.97208 23.4302C5.07816 23.0014 5.29566 22.6091 5.60209 22.2939Z" fill="white"/>
<path d="M5.60209 22.2939C5.89165 22.6115 6.08648 23.0054 6.16403 23.4302C6.13679 23.6243 6.13679 23.8214 6.16403 24.0155C6.40801 24.6292 6.54064 25.2823 6.55564 25.9436V28.5087H4.49536V25.9436C4.50456 25.2834 4.63141 24.6302 4.86992 24.0155C4.93147 23.8263 4.96587 23.6292 4.97208 23.4302C5.07816 23.0014 5.29566 22.6091 5.60209 22.2939Z" fill="url(#paint10_linear_13_812)"/>
</g>
<g id="Vector_15">
<path d="M13.1623 22.2939H13.2815C13.2815 22.2939 14.1329 22.9309 14.1329 23.4302C14.1315 23.6356 14.1845 23.8377 14.2862 24.0155C14.631 24.6002 14.8242 25.2633 14.848 25.9436V28.5087H11.7321V25.9436C11.7559 25.2633 11.9491 24.6002 12.2939 24.0155C12.3956 23.8377 12.4486 23.6356 12.4472 23.4302C12.4472 22.9309 13.1623 22.2939 13.1623 22.2939Z" fill="white"/>
<path d="M13.1623 22.2939H13.2815C13.2815 22.2939 14.1329 22.9309 14.1329 23.4302C14.1315 23.6356 14.1845 23.8377 14.2862 24.0155C14.631 24.6002 14.8242 25.2633 14.848 25.9436V28.5087H11.7321V25.9436C11.7559 25.2633 11.9491 24.6002 12.2939 24.0155C12.3956 23.8377 12.4486 23.6356 12.4472 23.4302C12.4472 22.9309 13.1623 22.2939 13.1623 22.2939Z" fill="url(#paint11_linear_13_812)"/>
</g>
<g id="Vector_16">
<path d="M9.04167 22.2939H9.16087C9.16087 22.2939 9.99521 22.9309 9.99521 23.4302C9.99382 23.6356 10.0468 23.8377 10.1485 24.0155C10.4986 24.5989 10.6976 25.2619 10.7274 25.9436V28.5087H7.59436V25.9436C7.62414 25.2619 7.82318 24.5989 8.17324 24.0155C8.26773 23.8347 8.32019 23.6345 8.32653 23.4302C8.32653 22.9309 9.04167 22.2939 9.04167 22.2939Z" fill="white"/>
<path d="M9.04167 22.2939H9.16087C9.16087 22.2939 9.99521 22.9309 9.99521 23.4302C9.99382 23.6356 10.0468 23.8377 10.1485 24.0155C10.4986 24.5989 10.6976 25.2619 10.7274 25.9436V28.5087H7.59436V25.9436C7.62414 25.2619 7.82318 24.5989 8.17324 24.0155C8.26773 23.8347 8.32019 23.6345 8.32653 23.4302C8.32653 22.9309 9.04167 22.2939 9.04167 22.2939Z" fill="url(#paint12_linear_13_812)"/>
</g>
<g id="Vector_17">
<path d="M11.1701 37.5469H11.2893C11.2893 37.5469 12.1236 38.2011 12.1236 38.6831C12.1196 38.8888 12.1728 39.0916 12.2769 39.2684C12.627 39.8518 12.826 40.5149 12.8558 41.1965V43.7789H9.72278V41.1965C9.75255 40.5149 9.9516 39.8518 10.3017 39.2684C10.3979 39.0883 10.4505 38.8877 10.455 38.6831C10.455 38.2011 11.1701 37.5469 11.1701 37.5469Z" fill="white"/>
<path d="M11.1701 37.5469H11.2893C11.2893 37.5469 12.1236 38.2011 12.1236 38.6831C12.1196 38.8888 12.1728 39.0916 12.2769 39.2684C12.627 39.8518 12.826 40.5149 12.8558 41.1965V43.7789H9.72278V41.1965C9.75255 40.5149 9.9516 39.8518 10.3017 39.2684C10.3979 39.0883 10.4505 38.8877 10.455 38.6831C10.455 38.2011 11.1701 37.5469 11.1701 37.5469Z" fill="url(#paint13_linear_13_812)"/>
</g>
<path id="Vector_18" d="M8.99056 102.466C8.49477 102.825 7.89746 103.012 7.2878 103C5.44881 103 4.05261 101.02 4.05261 97.4049C4.05261 93.7897 5.44888 91.5861 7.45813 91.5861C8.02232 91.5596 8.57745 91.7366 9.02464 92.0853L8.82032 93.2388C8.43956 92.9436 7.97199 92.786 7.49222 92.7912C5.94271 92.7912 4.92104 94.5127 4.92104 97.3533C4.92104 100.194 5.85752 101.795 7.44109 101.795C7.94529 101.805 8.4379 101.641 8.83737 101.33L8.99056 102.466Z" fill="white"/>
<path id="Vector_19" d="M19.5647 101.984C19.5647 101.365 19.8202 100.951 20.1607 100.951C20.5013 100.951 20.7226 101.365 20.7226 101.984C20.7226 102.604 20.5013 103.017 20.1437 103.017C19.7861 103.017 19.5647 102.57 19.5647 101.984Z" fill="white"/>
<path id="Vector_20" d="M36.1667 102.466C35.6693 102.822 35.073 103.009 34.4639 103C32.6079 103 31.2117 101.02 31.2117 97.4049C31.2117 93.7896 32.6079 91.586 34.6172 91.586C35.1766 91.556 35.7276 91.7335 36.1667 92.0853L35.9623 93.2387C35.5816 92.9436 35.114 92.786 34.6342 92.7911C33.1018 92.7911 32.0801 94.5127 32.0801 97.3532C32.0801 100.194 32.9996 101.795 34.6001 101.795C35.0988 101.803 35.5851 101.639 35.9794 101.33L36.1667 102.466Z" fill="white"/>
<path id="Vector_21" d="M46.7408 101.984C46.7408 101.365 46.9792 100.951 47.3197 100.951C47.6603 100.951 47.8987 101.365 47.8987 101.984C47.8987 102.604 47.6773 103.017 47.3197 103.017C46.9621 103.017 46.7408 102.57 46.7408 101.984Z" fill="white"/>
<path id="Vector_22" d="M64.2622 97.9731C64.2622 96.4237 64.16 94.53 64.2622 93.1872C64.0408 94.4956 63.7684 95.8728 63.4279 97.405L62.27 102.759H61.64L60.5672 97.491C60.2607 95.9417 59.9883 94.5128 59.818 93.1872C59.818 94.5644 59.818 96.4237 59.6988 98.0936L59.5286 102.828H58.7112L59.171 91.7583H60.2608L61.3675 97.1123C61.6399 98.4723 61.8783 99.6946 62.0316 100.848C62.2019 99.729 62.4403 98.5068 62.7298 97.1123L63.8876 91.7583H64.9773L65.3861 102.828H64.5516L64.2622 97.9731Z" fill="white"/>
<path id="Vector_23" d="M76.0793 101.984C76.0793 101.365 76.3347 100.951 76.6753 100.951C77.0158 100.951 77.2543 101.365 77.2543 101.984C77.2543 102.604 77.0159 103.017 76.6583 103.017C76.3008 103.017 76.0793 102.57 76.0793 101.984Z" fill="white"/>
<path id="Vector_24" d="M88.9351 91.7583V102.828H88.0837V91.7583H88.9351Z" fill="white"/>
<path id="Vector_25" d="M99.9351 101.984C99.9351 101.365 100.173 100.951 100.514 100.951C100.854 100.951 101.093 101.365 101.093 101.984C101.093 102.604 100.872 103.017 100.497 103.017C100.122 103.017 99.9351 102.57 99.9351 101.984Z" fill="white"/>
</g>
<defs>
<linearGradient id="paint0_linear_13_812" x1="7.91822" y1="73.6341" x2="33.0795" y2="48.912" gradientUnits="userSpaceOnUse">
<stop stop-color="#F39200"/>
<stop offset="0.37" stop-color="#F8F5C3"/>
<stop offset="0.73" stop-color="#F39200"/>
<stop offset="1" stop-color="#F8F5C3"/>
</linearGradient>
<linearGradient id="paint1_linear_13_812" x1="6.58968" y1="56.7766" x2="10.1358" y2="53.2691" gradientUnits="userSpaceOnUse">
<stop stop-color="#F39200"/>
<stop offset="0.37" stop-color="#F8F5C3"/>
<stop offset="0.73" stop-color="#F39200"/>
<stop offset="1" stop-color="#F8F5C3"/>
</linearGradient>
<linearGradient id="paint2_linear_13_812" x1="11.6809" y1="54.1254" x2="15.2268" y2="50.6352" gradientUnits="userSpaceOnUse">
<stop stop-color="#F39200"/>
<stop offset="0.37" stop-color="#F8F5C3"/>
<stop offset="0.73" stop-color="#F39200"/>
<stop offset="1" stop-color="#F8F5C3"/>
</linearGradient>
<linearGradient id="paint3_linear_13_812" x1="0.153224" y1="83.6671" x2="18.056" y2="65.9767" gradientUnits="userSpaceOnUse">
<stop stop-color="#F39200"/>
<stop offset="0.37" stop-color="#F8F5C3"/>
<stop offset="0.73" stop-color="#F39200"/>
<stop offset="1" stop-color="#F8F5C3"/>
</linearGradient>
<linearGradient id="paint4_linear_13_812" x1="-10.2164" y1="73.5788" x2="14.9336" y2="48.7204" gradientUnits="userSpaceOnUse">
<stop stop-color="#F39200"/>
<stop offset="0.37" stop-color="#F8F5C3"/>
<stop offset="0.73" stop-color="#F39200"/>
<stop offset="1" stop-color="#F8F5C3"/>
</linearGradient>
<linearGradient id="paint5_linear_13_812" x1="7.71354" y1="16.8195" x2="14.5304" y2="10.077" gradientUnits="userSpaceOnUse">
<stop stop-color="#F39200"/>
<stop offset="0.37" stop-color="#F8F5C3"/>
<stop offset="0.73" stop-color="#F39200"/>
<stop offset="1" stop-color="#F8F5C3"/>
</linearGradient>
<linearGradient id="paint6_linear_13_812" x1="10.4959" y1="5.28572" x2="11.7609" y2="0.0092095" gradientUnits="userSpaceOnUse">
<stop stop-color="#F39200"/>
<stop offset="0.37" stop-color="#F8F5C3"/>
<stop offset="0.73" stop-color="#F39200"/>
<stop offset="1" stop-color="#F8F5C3"/>
</linearGradient>
<linearGradient id="paint7_linear_13_812" x1="3.25213" y1="20.1936" x2="19.3262" y2="20.1936" gradientUnits="userSpaceOnUse">
<stop stop-color="#F39200"/>
<stop offset="0.37" stop-color="#F8F5C3"/>
<stop offset="0.73" stop-color="#F39200"/>
<stop offset="1" stop-color="#F8F5C3"/>
</linearGradient>
<linearGradient id="paint8_linear_13_812" x1="3.25213" y1="30.919" x2="19.3262" y2="30.919" gradientUnits="userSpaceOnUse">
<stop stop-color="#F39200"/>
<stop offset="0.37" stop-color="#F8F5C3"/>
<stop offset="0.73" stop-color="#F39200"/>
<stop offset="1" stop-color="#F8F5C3"/>
</linearGradient>
<linearGradient id="paint9_linear_13_812" x1="16.1885" y1="27.3336" x2="18.7179" y2="26.4047" gradientUnits="userSpaceOnUse">
<stop stop-color="#F39200"/>
<stop offset="0.37" stop-color="#F8F5C3"/>
<stop offset="0.73" stop-color="#F39200"/>
<stop offset="1" stop-color="#F8F5C3"/>
</linearGradient>
<linearGradient id="paint10_linear_13_812" x1="4.83121" y1="27.3336" x2="7.36049" y2="26.4047" gradientUnits="userSpaceOnUse">
<stop stop-color="#F39200"/>
<stop offset="0.37" stop-color="#F8F5C3"/>
<stop offset="0.73" stop-color="#F39200"/>
<stop offset="1" stop-color="#F8F5C3"/>
</linearGradient>
<linearGradient id="paint11_linear_13_812" x1="12.24" y1="27.3336" x2="15.5577" y2="25.4909" gradientUnits="userSpaceOnUse">
<stop stop-color="#F39200"/>
<stop offset="0.37" stop-color="#F8F5C3"/>
<stop offset="0.73" stop-color="#F39200"/>
<stop offset="1" stop-color="#F8F5C3"/>
</linearGradient>
<linearGradient id="paint12_linear_13_812" x1="8.10508" y1="27.3336" x2="11.4324" y2="25.4755" gradientUnits="userSpaceOnUse">
<stop stop-color="#F39200"/>
<stop offset="0.37" stop-color="#F8F5C3"/>
<stop offset="0.73" stop-color="#F39200"/>
<stop offset="1" stop-color="#F8F5C3"/>
</linearGradient>
<linearGradient id="paint13_linear_13_812" x1="10.2335" y1="42.6005" x2="13.5651" y2="40.7451" gradientUnits="userSpaceOnUse">
<stop stop-color="#F39200"/>
<stop offset="0.37" stop-color="#F8F5C3"/>
<stop offset="0.73" stop-color="#F39200"/>
<stop offset="1" stop-color="#F8F5C3"/>
</linearGradient>
<clipPath id="clip0_13_812">
<rect width="103" height="103" fill="white"/>
</clipPath>
</defs>
</svg>
