<svg width="20" height="20" viewBox="0 0 20 20" fill="none" xmlns="http://www.w3.org/2000/svg">
<path d="M2.5 6.83382V13.1672C2.5 14.1006 2.5 14.567 2.68166 14.9236C2.84144 15.2372 3.09623 15.4924 3.40983 15.6522C3.766 15.8337 4.2325 15.8337 5.16409 15.8337H14.8359C15.7675 15.8337 16.2333 15.8337 16.5895 15.6522C16.9031 15.4924 17.1587 15.2372 17.3185 14.9236C17.5 14.5674 17.5 14.1016 17.5 13.17V6.83108C17.5 5.89949 17.5 5.43299 17.3185 5.07682C17.1587 4.76322 16.9031 4.50844 16.5895 4.34865C16.233 4.16699 15.7669 4.16699 14.8335 4.16699H5.16683C4.23341 4.16699 3.76635 4.16699 3.40983 4.34865C3.09623 4.50844 2.84144 4.76322 2.68166 5.07682C2.5 5.43334 2.5 5.9004 2.5 6.83382Z" fill="#D9D9D9"/>
<path d="M3.33333 5.00033L8.42303 8.84388L8.42473 8.84529C8.98987 9.25973 9.27261 9.46707 9.5823 9.54717C9.85602 9.61797 10.1438 9.61797 10.4175 9.54717C10.7274 9.467 11.011 9.25905 11.5771 8.84388C11.5771 8.84388 14.8417 6.33861 16.6667 5.00033M2.5 13.1672V6.83382C2.5 5.9004 2.5 5.43334 2.68166 5.07682C2.84144 4.76322 3.09623 4.50844 3.40983 4.34865C3.76635 4.16699 4.23341 4.16699 5.16683 4.16699H14.8335C15.7669 4.16699 16.233 4.16699 16.5895 4.34865C16.9031 4.50844 17.1587 4.76322 17.3185 5.07682C17.5 5.43299 17.5 5.89949 17.5 6.83108V13.17C17.5 14.1016 17.5 14.5674 17.3185 14.9236C17.1587 15.2372 16.9031 15.4924 16.5895 15.6522C16.2333 15.8337 15.7675 15.8337 14.8359 15.8337H5.16409C4.2325 15.8337 3.766 15.8337 3.40983 15.6522C3.09623 15.4924 2.84144 15.2372 2.68166 14.9236C2.5 14.567 2.5 14.1006 2.5 13.1672Z" stroke="white" stroke-width="1.5" stroke-linecap="round" stroke-linejoin="round"/>
</svg>
