<svg width="54" height="54" viewBox="0 0 54 54" fill="none" xmlns="http://www.w3.org/2000/svg">
<g filter="url(#filter0_d_298_235)">
<rect x="3" y="2" width="48" height="48" rx="6" fill="#FDB913" shape-rendering="crispEdges"/>
<path d="M22.471 37.536L22.9 34.8114L21.9444 34.7892H17.3811L20.5524 14.6832C20.5621 14.6225 20.5942 14.5659 20.6409 14.5257C20.6877 14.4855 20.7477 14.4634 20.81 14.4634H28.5044C31.0589 14.4634 32.8217 14.9949 33.7421 16.0439C34.1735 16.5361 34.4484 17.0503 34.5813 17.6163C34.7207 18.2101 34.7232 18.9196 34.587 19.7849L34.5771 19.8481V20.4026L35.0087 20.647C35.3721 20.8397 35.6607 21.0604 35.8822 21.313C36.2515 21.7338 36.4902 22.2686 36.5911 22.9026C36.6952 23.5546 36.6607 24.3306 36.4902 25.209C36.2933 26.2195 35.975 27.0996 35.5452 27.8198C35.1497 28.4833 34.646 29.0336 34.0481 29.4602C33.4772 29.8654 32.7988 30.173 32.0318 30.3699C31.2884 30.5633 30.4412 30.6611 29.5118 30.6611H28.9129C28.4848 30.6611 28.0688 30.8152 27.7424 31.0917C27.4151 31.3739 27.1984 31.7592 27.132 32.1809L27.0869 32.4262L26.3289 37.2284L26.2944 37.4047C26.2855 37.4607 26.2699 37.4886 26.247 37.5075C26.2264 37.5245 26.1969 37.536 26.1681 37.536H22.471Z" fill="#253B80"/>
<path d="M35.4154 19.9131C35.3924 20.0599 35.3662 20.21 35.3367 20.3642C34.3218 25.5734 30.8504 27.373 26.4165 27.373H24.1591C23.6169 27.373 23.16 27.7666 23.0755 28.3014L21.9196 35.631L21.5923 37.7085C21.5373 38.0595 21.8081 38.3762 22.1623 38.3762H26.1664C26.6406 38.3762 27.0432 38.0317 27.1178 37.5642L27.1573 37.3607L27.9112 32.5771L27.9597 32.3148C28.0333 31.8457 28.4369 31.5012 28.911 31.5012H29.5099C33.3891 31.5012 36.426 29.9264 37.3136 25.3692C37.6844 23.4654 37.4924 21.8759 36.5113 20.7579C36.2144 20.4208 35.8461 20.1411 35.4154 19.9131Z" fill="#179BD7"/>
<path d="M34.3518 19.4887C34.1969 19.4436 34.0368 19.4026 33.8727 19.3656C33.7079 19.3296 33.5388 19.2976 33.365 19.2697C32.7563 19.1713 32.0894 19.1245 31.3749 19.1245H25.344C25.1955 19.1245 25.0545 19.1581 24.9282 19.2188C24.65 19.3525 24.4434 19.6158 24.3934 19.9382L23.1102 28.0632L23.0734 28.3003C23.1579 27.7655 23.6148 27.3718 24.157 27.3718H26.4144C30.8483 27.3718 34.32 25.5714 35.3346 20.363C35.3649 20.2088 35.3904 20.0587 35.4133 19.9119C35.1566 19.7758 34.8784 19.6593 34.579 19.56C34.5053 19.5354 34.4291 19.5117 34.3518 19.4887Z" fill="#222D65"/>
<path d="M24.3969 19.9389C24.4469 19.6165 24.6538 19.3532 24.9317 19.2203C25.059 19.1596 25.1993 19.126 25.3476 19.126H31.3787C32.0932 19.126 32.76 19.1728 33.3686 19.2712C33.5426 19.2991 33.7117 19.3311 33.8765 19.3672C34.0406 19.4041 34.2005 19.4451 34.3556 19.4902C34.4326 19.5132 34.5088 19.5369 34.5835 19.5607C34.8829 19.66 35.1611 19.7773 35.4177 19.9126C35.7197 17.9876 35.4154 16.6769 34.3745 15.49C33.2269 14.1834 31.1555 13.624 28.5051 13.624H20.8105C20.269 13.624 19.8074 14.0177 19.7235 14.5533L16.5187 34.866C16.4555 35.2678 16.7655 35.6305 17.1707 35.6305H21.9212L23.114 28.0639L24.3969 19.9389Z" fill="#253B80"/>
</g>
<defs>
<filter id="filter0_d_298_235" x="0" y="0" width="54" height="54" filterUnits="userSpaceOnUse" color-interpolation-filters="sRGB">
<feFlood flood-opacity="0" result="BackgroundImageFix"/>
<feColorMatrix in="SourceAlpha" type="matrix" values="0 0 0 0 0 0 0 0 0 0 0 0 0 0 0 0 0 0 127 0" result="hardAlpha"/>
<feOffset dy="1"/>
<feGaussianBlur stdDeviation="1.5"/>
<feComposite in2="hardAlpha" operator="out"/>
<feColorMatrix type="matrix" values="0 0 0 0 0 0 0 0 0 0 0 0 0 0 0 0 0 0 0.1 0"/>
<feBlend mode="normal" in2="BackgroundImageFix" result="effect1_dropShadow_298_235"/>
<feBlend mode="normal" in="SourceGraphic" in2="effect1_dropShadow_298_235" result="shape"/>
</filter>
</defs>
</svg>
